<svg width="200" height="65" viewBox="0 0 200 65" fill="none" xmlns="http://www.w3.org/2000/svg">
<path d="M44.147 10C40.1963 10 37 13.2267 37 17.2103V47.7911C37 51.7715 40.1963 55 44.147 55H74.4706C78.4182 55 81.6158 51.7717 81.6158 47.7911V47.4782C81.4829 47.4224 70.0207 42.6001 64.1947 39.7745C60.2641 44.6532 55.1944 47.613 49.9306 47.613C41.0297 47.613 38.0071 39.7559 42.2216 34.5839C43.1406 33.4563 44.7038 32.3792 47.13 31.7762C50.9255 30.8357 56.9657 32.3634 62.627 34.2477C63.6454 32.3556 64.502 30.2718 65.1401 28.0531H47.6939V26.2711H56.6899V23.0753H45.7941V21.2921H56.6899V16.7336C56.6899 16.7336 56.6899 15.9657 57.4613 15.9657H61.8591V21.292H72.6305V23.0756H61.8591V26.2711H70.6513C69.81 29.7475 68.5326 32.9475 66.929 35.7566C69.5974 36.7301 71.9926 37.6535 73.7778 38.2565C79.7321 40.2661 81.401 40.5117 81.6163 40.5373V17.2104C81.6163 13.2268 78.4185 10.0002 74.471 10.0002H44.1475L44.147 10ZM49.0397 34.3812C48.6576 34.3857 48.2738 34.4067 47.8872 34.4451C46.7726 34.5581 44.68 35.0541 43.5359 36.0749C40.1068 39.0913 42.1592 44.6055 49.0996 44.6055C53.1342 44.6055 57.1653 42.004 60.3321 37.8383C56.2493 35.8291 52.733 34.338 49.0397 34.3812Z" fill="#D6D6D6"/>
<path d="M159.213 41.2831L157.222 45.6578L155.2 41.2831H153.226L156.301 47.3315V51.5506H158.112V47.3315L158.123 47.3079L161.186 41.2831H159.213ZM144.631 43.9298L146.036 48.1882H143.177L144.631 43.9298ZM146.468 49.4821L147.145 51.55H149.043L145.305 41.2824H143.854L140.128 51.55H142.028L142.734 49.4821H146.468ZM132.299 46.1915H130.283V42.6789H132.299C133.313 42.6789 133.918 43.5755 133.918 44.4422C133.918 45.2901 133.352 46.1913 132.299 46.1913M132.402 41.2828H128.457V51.5504H130.283V47.603H132.401C134.37 47.603 135.745 46.3029 135.745 44.4422C135.745 42.5814 134.37 41.283 132.401 41.283M119.229 51.5506H121.056V41.283H119.229L119.229 51.5506ZM106.386 41.2831V51.5507H112.532V50.1517H108.212V41.2831H106.386ZM95.9861 43.9298L97.3895 48.1882H94.5318L95.9861 43.9298ZM97.8226 49.4821L98.4994 51.55H100.396L96.6584 41.2824H95.2086L91.4829 51.55H93.3814L94.0877 49.4821H97.8226ZM110.675 21.2113H102.843V18.3724H111.925V16.6043H102.843V13.0069H98.795C98.3511 13.0069 97.9924 13.3838 97.9924 13.847V16.6043H88.9749V18.3724H97.9924V21.2114H90.3816V22.9778H105.541C105.541 22.9778 104.701 26.2959 100.543 29.8616C96.8171 27.0085 95.5721 24.7365 95.5721 24.7365H91.505C93.1505 27.621 95.4883 29.9307 98.0061 31.7631C95.6932 33.2831 92.694 34.7482 88.8164 35.9212V38.0377C88.8164 38.0377 94.799 36.8962 100.581 33.4496C106.373 36.8696 112.19 38.0377 112.19 38.0377V36.0341C108.467 34.6634 105.518 33.1559 103.202 31.7021C106.556 29.1881 109.497 25.7758 110.675 21.2113ZM136.114 13.3613H132.038V17.6699H121.989V19.405H132.038V34.8956C132.002 35.2505 131.726 35.5268 131.379 35.5457H129.307V37.3405H134.591C135.428 37.306 136.096 36.604 136.114 35.7341V19.4048H137.769V17.6697H136.114L136.114 13.3613ZM127.517 22.3279C127.368 22.0202 127.064 21.8081 126.71 21.805H123.314L125.96 30.2339H129.978L127.517 22.3279ZM117.485 13.1572L112.809 24.345H116.396V37.6571H120.319V19.9988H118.897L121.851 13.1574L117.485 13.1572ZM162.972 37.0465L161.539 32.1506C161.443 31.8381 161.164 31.6121 160.831 31.6121H157.033L158.135 35.3726H153.669V28.0871H162.438V26.3535H153.669V22.924H162.438V21.1904H140.555V22.924H149.323V26.3533H140.555V28.0869H149.323V35.3725H140.555V37.1062H162.973L162.954 37.0465H162.972ZM145.115 17.0543H157.886V19.6121H162.448V16.5815C162.447 16.5752 162.447 16.572 162.447 16.5642C162.447 15.8828 161.919 15.3317 161.265 15.3207H153.882V12.9355H149.109V15.3206H140.554V19.6121H145.115L145.115 17.0543Z" fill="#D6D6D6"/>
</svg>
