<svg width="200" height="65" viewBox="0 0 200 65" fill="none" xmlns="http://www.w3.org/2000/svg">
<path d="M139.953 50.8655C139.953 57.5268 134.503 62.9557 127.807 62.9557H59.5V13.5903C59.5 6.92899 64.9499 1.5 71.6462 1.5H139.953V50.8655Z" stroke="#D6D6D6"/>
<path d="M118.049 38.0769H123.277C123.426 38.0769 123.774 38.0273 123.924 38.0273C124.92 37.8291 125.766 36.9368 125.766 35.6976C125.766 34.508 124.92 33.6158 123.924 33.3679C123.774 33.3184 123.476 33.3184 123.277 33.3184H118.049V38.0769Z" fill="#D6D6D6"/>
<path d="M122.68 5.21338C117.701 5.21338 113.618 9.22839 113.618 14.2348V23.6031H126.414C126.712 23.6031 127.061 23.6031 127.31 23.6527C130.198 23.8014 132.338 25.2884 132.338 27.866C132.338 29.8983 130.895 31.6332 128.206 31.9801V32.0793C131.144 32.2775 133.384 33.9133 133.384 36.4413C133.384 39.1675 130.895 40.952 127.609 40.952H113.568V59.2921H126.862C131.841 59.2921 135.923 55.2771 135.923 50.2707V5.21338H122.68Z" fill="#D6D6D6"/>
<path d="M125.119 28.4608C125.119 27.2711 124.272 26.4781 123.277 26.3294C123.177 26.3294 122.928 26.2798 122.779 26.2798H118.049V30.6418H122.779C122.928 30.6418 123.227 30.6418 123.277 30.5922C124.272 30.4435 125.119 29.6504 125.119 28.4608Z" fill="#D6D6D6"/>
<path d="M72.5917 5.21338C67.6129 5.21338 63.5303 9.22839 63.5303 14.2348V36.4908C66.0695 37.73 68.7082 38.5231 71.347 38.5231C74.4836 38.5231 76.1764 36.6395 76.1764 34.062V23.5536H83.9434V34.0124C83.9434 38.077 81.4042 41.3981 72.7908 41.3981C67.5631 41.3981 63.4805 40.258 63.4805 40.258V59.2426H76.7739C81.7527 59.2426 85.8353 55.2275 85.8353 50.2212V5.21338H72.5917Z" fill="#D6D6D6"/>
<path d="M97.6357 5.21338C92.6568 5.21338 88.5742 9.22839 88.5742 14.2348V26.032C90.8645 24.0988 94.8475 22.8596 101.27 23.157C104.706 23.3057 108.39 24.2475 108.39 24.2475V28.0643C106.548 27.1225 104.357 26.2798 101.519 26.0815C96.6399 25.7346 93.7024 28.1138 93.7024 32.2775C93.7024 36.4908 96.6399 38.8701 101.519 38.4735C104.357 38.2753 106.548 37.383 108.39 36.4908V40.3076C108.39 40.3076 104.755 41.2494 101.27 41.3981C94.8475 41.6955 90.8645 40.4563 88.5742 38.5231V59.3417H101.868C106.846 59.3417 110.929 55.3267 110.929 50.3203V5.21338H97.6357Z" fill="#D6D6D6"/>
</svg>
