<svg width="200" height="65" viewBox="0 0 200 65" fill="none" xmlns="http://www.w3.org/2000/svg">
<path fill-rule="evenodd" clip-rule="evenodd" d="M99.5259 53.6458C104.428 58.155 111.012 60.8898 118.173 60.8898C133.553 60.8898 146.001 48.3686 146.001 32.9684C146.001 17.5683 133.553 5 118.173 5C111.012 5 104.428 7.73437 99.5259 12.2441C93.9028 17.3772 90.3457 24.7653 90.3457 32.9689C90.3461 41.1724 93.9024 48.561 99.5259 53.6462V53.6458Z" fill="#D6D6D6"/>
<path fill-rule="evenodd" clip-rule="evenodd" d="M142.297 48.5122C142.297 48.0325 142.682 47.6489 143.162 47.6489C143.69 47.6489 144.074 48.0329 144.074 48.5122C144.074 49.0407 143.689 49.4242 143.162 49.4242C142.682 49.4242 142.297 49.0407 142.297 48.5122ZM143.162 49.2327C143.546 49.2327 143.882 48.8962 143.882 48.5126C143.882 48.1291 143.546 47.8413 143.162 47.8413C142.825 47.8413 142.489 48.1291 142.489 48.5126C142.489 48.8962 142.825 49.2327 143.162 49.2327ZM143.066 48.9449H142.873V48.1291H143.209C143.258 48.1291 143.354 48.1291 143.402 48.1779C143.498 48.2253 143.498 48.2736 143.498 48.3698C143.498 48.4661 143.45 48.5618 143.354 48.5618L143.546 48.9458H143.305L143.209 48.6093H143.066V48.9454V48.4656H143.258C143.306 48.4656 143.306 48.4169 143.306 48.3698C143.306 48.3228 143.306 48.3211 143.258 48.2741H143.066V48.9458V48.9449Z" fill="#D6D6D6"/>
<path fill-rule="evenodd" clip-rule="evenodd" d="M108.511 29.9951C108.415 28.9877 108.222 28.0286 108.03 27.0208H91.0165C91.2088 26.0134 91.4971 25.0544 91.7854 24.0945H107.214C106.879 23.0845 106.494 22.0919 106.06 21.1202H92.9874C93.4684 20.1041 93.9975 19.1116 94.5736 18.146H104.427C103.793 17.1212 103.086 16.1434 102.312 15.2196H96.6884C97.5585 14.1591 98.5062 13.1648 99.5242 12.2454C94.5736 7.78269 88.0368 5 80.8275 5C65.4961 5 53 17.5217 53 32.9689C53 48.416 65.4961 60.8903 80.8275 60.8903C88.0368 60.8903 94.5732 58.155 99.5237 53.6462C100.526 52.7425 101.458 51.7638 102.312 50.719H96.688C95.9187 49.7595 95.2461 48.8004 94.5732 47.7447H104.426C105.046 46.7961 105.592 45.8018 106.061 44.7705H92.987C92.5543 43.811 92.1221 42.852 91.785 41.8433H107.213C107.549 40.8838 107.79 39.8773 108.03 38.869C108.222 37.9095 108.414 36.903 108.51 35.8948C108.608 34.9222 108.656 33.9453 108.655 32.9676C108.655 31.9619 108.607 30.9545 108.511 29.9955V29.9951Z" fill="#A5A5A5"/>
<path fill-rule="evenodd" clip-rule="evenodd" d="M142.297 39.4454C142.297 38.9182 142.682 38.5347 143.162 38.5347C143.69 38.5347 144.074 38.9186 144.074 39.4454C144.074 39.9251 143.689 40.3574 143.162 40.3574C142.682 40.3574 142.297 39.9251 142.297 39.4454ZM143.162 40.1167C143.546 40.1167 143.882 39.8289 143.882 39.4454C143.882 39.0619 143.546 38.7741 143.162 38.7741C142.825 38.7741 142.489 39.0619 142.489 39.4454C142.489 39.8289 142.825 40.1167 143.162 40.1167ZM143.066 39.8289H142.873V39.0614H143.402C143.498 39.1102 143.498 39.206 143.498 39.3022C143.498 39.3496 143.45 39.4454 143.354 39.4942L143.546 39.8294H143.305L143.209 39.5416H143.066V39.8289V39.3975H143.162C143.209 39.3975 143.258 39.3975 143.258 39.3488C143.305 39.3488 143.305 39.3013 143.305 39.253C143.305 39.253 143.305 39.2055 143.258 39.2055C143.258 39.1568 143.209 39.2055 143.162 39.2055H143.066V39.8289Z" fill="white"/>
<path fill-rule="evenodd" clip-rule="evenodd" d="M90.0564 41.029C89.1436 41.2685 88.4702 41.413 87.7977 41.413C86.3558 41.413 85.4906 40.501 85.4906 38.8697C85.4906 38.5345 85.5385 38.1984 85.5865 37.8145L85.7788 36.7118L85.9232 35.7997L87.2207 27.9323H90.1044L89.7677 29.6592H91.5942L91.1616 32.5377H89.3351L88.5662 37.239C88.5182 37.4797 88.5182 37.6229 88.5182 37.7187C88.5182 38.3425 88.8065 38.582 89.5274 38.582C89.8641 38.582 90.152 38.5345 90.4402 38.4862L90.056 41.0286L90.0564 41.029ZM99.3806 40.9333C98.3234 41.221 97.3621 41.3647 96.3045 41.3647C93.0361 41.3647 91.1616 39.6377 91.1616 36.232C91.1616 32.2495 93.3728 29.3711 96.4484 29.3711C98.8995 29.3711 100.486 31.0023 100.486 33.5442C100.486 34.4088 100.39 35.2242 100.15 36.3752H94.1421C94.0942 36.5672 94.0942 36.663 94.0942 36.7592C94.0942 38.1027 95.007 38.774 96.7376 38.774C97.8427 38.774 98.804 38.5345 99.8616 38.0552L99.3814 40.9333H99.3806ZM97.602 34.0732V33.4972C97.602 32.5377 97.073 32.0101 96.1601 32.0101C95.1985 32.0101 94.5259 32.7293 94.2377 34.0727H97.602V34.0732ZM66.9863 41.1727H64.0066L65.7367 30.2835L61.8438 41.1727H59.7774L59.5371 30.3314L57.7106 41.1727H54.7793L57.134 27.0211H61.5075L61.6035 35.7531L64.5352 27.0211H69.3414L66.9858 41.1727H66.9863ZM74.2444 36.04C73.9561 35.9913 73.8597 35.9913 73.6674 35.9913C71.9372 35.9913 71.072 36.6626 71.072 37.7183C71.072 38.4383 71.5046 38.9181 72.1771 38.9181C73.619 38.9181 74.1956 37.7183 74.244 36.0396L74.2444 36.04ZM76.6475 41.1727H74.0521L74.1 39.9742C73.4271 40.8849 72.5138 41.3647 70.928 41.3647C69.4862 41.3647 68.2367 40.07 68.2367 38.1989C68.2367 37.6717 68.3326 37.1919 68.477 36.7122C68.9571 34.9364 70.7357 33.8337 73.4751 33.785C73.8118 33.785 74.3399 33.785 74.821 33.8337C74.9165 33.4498 74.9165 33.3052 74.9165 33.0658C74.9165 32.2978 74.2919 32.058 72.8981 32.058C72.0332 32.058 71.0715 32.2021 70.399 32.4419L69.9664 32.5377L69.774 32.5852L70.2067 29.9945C71.6006 29.5626 72.6098 29.3711 73.7154 29.3711C76.3108 29.3711 77.7043 30.5704 77.7043 32.7767C77.7043 33.3527 77.7522 33.7845 77.5599 35.0318L76.8874 39.1575L76.7914 39.8776L76.7434 40.4535L76.6955 40.8375L76.6475 41.1723V41.1727ZM113.896 29.7555C114.76 29.7555 115.53 29.9953 116.587 30.523L117.115 27.4525C116.827 27.3084 116.73 27.3084 116.346 27.1648L115.145 26.8287C114.761 26.7329 114.281 26.6846 113.751 26.6846C112.26 26.6846 111.396 26.7325 110.483 27.2605C110.003 27.5966 109.377 28.0285 108.704 28.7955L108.32 28.6998L105.244 30.8582L105.388 29.6588H102.215L100.342 41.1723H103.37L104.475 34.9843C104.475 34.9843 104.908 34.1197 105.1 33.8329C105.677 33.1128 106.157 33.1128 106.782 33.1128H107.023C106.922 33.8437 106.874 34.5812 106.878 35.3195C106.878 39.0613 108.993 41.4126 112.261 41.4126C113.078 41.4126 113.8 41.3168 114.905 41.0286L115.434 37.7666C114.473 38.2938 113.608 38.5341 112.886 38.5341C111.109 38.5341 110.05 37.1906 110.05 35.0801C110.049 31.9618 111.635 29.755 113.895 29.755L113.896 29.7555ZM139.415 27.0211L138.743 31.051C138.022 29.9479 137.156 29.4198 136.003 29.4198C134.416 29.4198 132.927 30.331 132.013 32.0584V32.011L130.091 30.859L130.283 29.6597H127.063L125.236 41.1731H128.216L129.226 34.9852C129.226 34.9852 129.995 34.1206 130.187 33.8337C130.668 33.2578 131.148 33.1611 131.533 33.1137C131.197 34.0732 131.005 35.2242 131.005 36.5202C131.005 39.3987 132.494 41.3172 134.705 41.3172C135.811 41.3172 136.676 40.9333 137.492 40.0212L137.349 41.1727H140.185L142.492 27.0211H139.415ZM135.715 38.4388C134.705 38.4388 134.177 37.6713 134.177 36.1837C134.177 33.9286 135.138 32.2978 136.531 32.2978C137.589 32.2978 138.118 33.1137 138.118 34.5529C138.118 36.8554 137.157 38.4388 135.715 38.4388ZM121.826 36.04C121.537 35.9913 121.441 35.9913 121.249 35.9913C119.517 35.9913 118.652 36.6626 118.652 37.7183C118.652 38.4383 119.086 38.9181 119.758 38.9181C121.2 38.9181 121.777 37.7183 121.826 36.0396V36.04ZM124.229 41.1727H121.585L121.681 39.9742C121.008 40.8849 120.094 41.3647 118.509 41.3647C117.019 41.3647 115.722 40.1174 115.722 38.1989C115.722 35.4649 117.788 33.7858 121.056 33.7858C121.393 33.7858 121.92 33.7858 122.354 33.8346C122.45 33.4506 122.499 33.3061 122.499 33.0667C122.499 32.2987 121.874 32.0588 120.432 32.0588C119.615 32.0588 118.605 32.2029 117.933 32.4428L117.548 32.5386L117.356 32.586L117.788 29.9953C119.182 29.5635 120.192 29.3719 121.297 29.3719C123.892 29.3719 125.238 30.5713 125.238 32.7776C125.238 33.3535 125.334 33.7854 125.094 35.0327L124.469 39.1584L124.373 39.8784L124.277 40.4544L124.23 40.8383V41.1727H124.229H124.229ZM82.9435 32.1059C83.5205 32.1059 84.3374 32.1537 85.2027 32.2978L85.6353 29.6114C84.7701 29.5156 83.6165 29.3715 82.9435 29.3715C79.5796 29.3715 78.4745 31.1947 78.4745 33.3052C78.4745 34.697 79.099 35.7039 80.7332 36.471C81.9347 37.047 82.1271 37.1423 82.1271 37.6708C82.1271 38.3896 81.5025 38.8223 80.3485 38.8223C79.4357 38.8223 78.57 38.6778 77.6092 38.3425L77.2725 40.9803L77.32 41.029L77.897 41.1248C78.0894 41.1723 78.3297 41.2206 78.6664 41.268C79.3869 41.3168 80.0123 41.3638 80.3965 41.3638C83.7608 41.3638 85.1547 40.0691 85.1547 37.5258C85.1547 35.9434 84.3854 34.9839 82.8956 34.3126C81.5981 33.7362 81.4537 33.6413 81.4537 33.1128C81.4537 32.5843 82.0307 32.1054 82.9435 32.1054V32.1059Z" fill="#A5A5A5"/>
<path fill-rule="evenodd" clip-rule="evenodd" d="M117.933 26.5414L117.403 29.6119C116.346 29.0838 115.577 28.8443 114.712 28.8443C112.453 28.8443 110.867 31.0511 110.867 34.1694C110.867 36.3287 111.924 37.6234 113.703 37.6234C114.423 37.6234 115.288 37.384 116.25 36.9047L115.722 40.1179C114.616 40.4057 113.895 40.5502 113.078 40.5502C109.81 40.5502 107.791 38.1989 107.791 34.4097C107.791 29.372 110.579 25.8218 114.568 25.8218C115.096 25.8218 115.576 25.8697 115.961 25.9659L117.163 26.2536C117.548 26.3977 117.644 26.4456 117.932 26.541L117.933 26.5414ZM108.224 28.6524H107.936C106.927 28.6524 106.35 29.1321 105.437 30.523L105.725 28.7477H102.985L101.111 40.2616H104.14C105.244 33.2095 105.533 32.0101 106.974 32.0101H107.167C107.455 30.6188 107.839 29.611 108.32 28.6998L108.224 28.6524H108.224ZM90.8261 40.1175C90.0093 40.4052 89.3363 40.5014 88.6638 40.5014C87.126 40.5014 86.2603 39.6382 86.2603 37.9595C86.2603 37.6717 86.3082 37.2882 86.3562 36.9517L86.5485 35.8002L86.6929 34.8895L87.9904 27.0207H90.9701L90.6334 28.7477H92.1712L91.7865 31.5783H90.2487L89.4318 36.3757C89.3838 36.5677 89.3838 36.7122 89.3838 36.8555C89.3838 37.4314 89.6721 37.6713 90.3931 37.6713C90.7298 37.6713 91.0176 37.6713 91.2099 37.5755L90.8257 40.117L90.8261 40.1175ZM79.2433 32.3941C79.2433 33.8338 79.9158 34.8407 81.502 35.6087C82.7516 36.1846 82.9439 36.3762 82.9439 36.8559C82.9439 37.576 82.4149 37.9112 81.2137 37.9112C80.3009 37.9112 79.4836 37.7679 78.5224 37.4798L78.0897 40.1175L78.2341 40.1662L78.7631 40.262C78.955 40.3095 79.1958 40.3578 79.58 40.3578C80.2525 40.4536 80.8295 40.4536 81.2142 40.4536C84.3858 40.4536 85.8765 39.2538 85.8765 36.6156C85.8765 35.0318 85.2519 34.1198 83.7621 33.4011C82.4646 32.8251 82.3202 32.6819 82.3202 32.1538C82.3202 31.5304 82.8493 31.2426 83.8101 31.2426C84.3871 31.2426 85.2039 31.2905 85.9733 31.3867L86.4055 28.7481C85.6366 28.604 84.4355 28.5083 83.7621 28.5083C80.3977 28.5078 79.1962 30.2827 79.2442 32.3932L79.2433 32.3941ZM140.955 40.262H138.118L138.263 39.158C137.446 40.0213 136.58 40.4052 135.475 40.4052C133.264 40.4052 131.822 38.535 131.822 35.6565C131.822 31.8182 134.081 28.5557 136.724 28.5557C137.926 28.5557 138.791 29.0838 139.609 30.139L140.282 26.1091H143.261L140.955 40.2616V40.262ZM136.532 37.5755C137.926 37.5755 138.888 35.9443 138.888 33.6892C138.888 32.2021 138.358 31.4342 137.301 31.4342C135.955 31.4342 134.947 33.0175 134.947 35.2726C134.947 36.8085 135.475 37.5755 136.532 37.5755ZM100.053 40.0217C98.9958 40.3582 98.0346 40.5014 96.9294 40.5014C93.5651 40.5014 91.8345 38.727 91.8345 35.3205C91.8345 31.3867 94.0457 28.4604 97.0738 28.4604C99.5728 28.4604 101.158 30.0916 101.158 32.634C101.158 33.4977 101.062 34.314 100.773 35.5125H94.815C94.7671 35.657 94.7671 35.7532 94.7671 35.849C94.7671 37.1924 95.6808 37.8637 97.4105 37.8637C98.5156 37.8637 99.4769 37.6717 100.534 37.1437L100.054 40.0217H100.053ZM98.3713 33.1616V32.5861C98.3713 31.6266 97.8422 31.099 96.9294 31.099C95.9682 31.099 95.2952 31.819 95.0069 33.1616H98.3713ZM67.7564 40.2624H64.7767L66.5069 29.372L62.6139 40.2624H60.5471L60.3068 29.4678L58.4807 40.2624H55.6934L58.048 26.11H62.3736L62.518 34.8895L65.4013 26.11H70.1115L67.7568 40.2624H67.7564ZM75.206 35.1289C74.9177 35.1289 74.7734 35.0815 74.533 35.0815C72.8509 35.0815 71.986 35.7049 71.986 36.8559C71.986 37.576 72.3707 38.0074 73.0432 38.0074C74.2927 38.0074 75.158 36.8559 75.2064 35.1289H75.206ZM77.4168 40.2624H74.9173L74.9653 39.0626C74.1959 40.0221 73.1867 40.4544 71.7932 40.4544C70.1591 40.4544 69.0539 39.2072 69.0539 37.3361C69.0539 34.5064 70.9759 32.8752 74.3407 32.8752C74.6774 32.8752 75.11 32.923 75.5902 32.9705C75.6862 32.587 75.6862 32.4433 75.6862 32.2513C75.6862 31.4838 75.1572 31.1961 73.7637 31.1961C72.8988 31.1961 71.9372 31.2918 71.2647 31.4838L70.832 31.6279L70.5437 31.6758L70.9764 29.0851C72.4662 28.6532 73.4754 28.5091 74.5815 28.5091C77.1769 28.5091 78.5703 29.6606 78.5703 31.8669C78.5703 32.4429 78.5224 32.8747 78.33 34.1699L77.6571 38.2481L77.5611 38.9669L77.5131 39.5428L77.4652 39.9751L77.4181 40.262L77.4168 40.2624ZM122.787 35.1289C122.45 35.1289 122.307 35.0815 122.115 35.0815C120.385 35.0815 119.519 35.7049 119.519 36.8559C119.519 37.576 119.952 38.0074 120.625 38.0074C121.827 38.0074 122.739 36.8559 122.788 35.1289H122.787ZM124.998 40.2624H122.499L122.547 39.0626C121.778 40.0221 120.769 40.4544 119.375 40.4544C117.741 40.4544 116.635 39.2072 116.635 37.3361C116.635 34.5064 118.557 32.8752 121.922 32.8752C122.259 32.8752 122.691 32.923 123.124 32.9705C123.22 32.587 123.268 32.4433 123.268 32.2513C123.268 31.4838 122.739 31.1961 121.346 31.1961C120.48 31.1961 119.472 31.2918 118.798 31.4838L118.414 31.6279L118.126 31.6758L118.558 29.0851C120.048 28.6532 121.057 28.5091 122.163 28.5091C124.758 28.5091 126.104 29.6606 126.104 31.8669C126.104 32.4429 126.104 32.8747 125.864 34.1699L125.239 38.2481L125.143 38.9669L125.047 39.5428L124.999 39.9751V40.262H124.999L124.998 40.2624ZM133.072 28.6528H132.784C131.775 28.6528 131.199 29.1325 130.285 30.5235L130.573 28.7481H127.833L126.006 40.262H128.986C130.092 33.2099 130.38 32.0106 131.822 32.0106H132.015C132.303 30.6192 132.687 29.6114 133.168 28.7002L133.072 28.6528Z" fill="white"/>
</svg>
