<svg width="200" height="65" viewBox="0 0 200 65" fill="none" xmlns="http://www.w3.org/2000/svg">
<path d="M88.587 17.5693L75.6262 48.4903H67.17L60.7928 23.8104C60.405 22.2924 60.0709 21.7355 58.8911 21.0961C56.9689 20.0525 53.7926 19.0749 51 18.4644L51.1898 17.5693H64.8022C65.6918 17.5684 66.5524 17.8855 67.2286 18.4634C67.9049 19.0413 68.3522 19.8419 68.49 20.7208L71.8601 38.615L80.1844 17.5693H88.587ZM121.723 38.3964C121.756 30.233 110.437 29.7834 110.516 26.1369C110.54 25.0273 111.596 23.8475 113.906 23.5464C116.613 23.2893 119.34 23.7681 121.797 24.9324L123.2 18.3736C120.807 17.4741 118.273 17.009 115.717 17C107.809 17 102.245 21.2075 102.195 27.2259C102.146 31.6768 106.168 34.1559 109.2 35.6409C112.318 37.1547 113.366 38.1283 113.349 39.4813C113.329 41.5603 110.866 42.4719 108.564 42.509C104.542 42.5709 102.212 41.4241 100.347 40.5579L98.8995 47.3311C100.768 48.1891 104.217 48.9399 107.793 48.9729C116.196 48.9729 121.694 44.8231 121.723 38.3964ZM142.6 48.4903H150L143.544 17.5693H136.713C135.983 17.5625 135.268 17.7752 134.661 18.1797C134.053 18.5842 133.581 19.162 133.306 19.838L121.307 48.4903H129.705L131.376 43.8703H141.639L142.6 48.4903ZM133.677 37.5343L137.885 25.9224L140.31 37.5343H133.677ZM100.017 17.5693L93.405 48.4903H85.4025L92.0231 17.5693H100.017Z" fill="#D6D6D6"/>
</svg>
