<svg width="200" height="65" viewBox="0 0 200 65" fill="none" xmlns="http://www.w3.org/2000/svg">
<path d="M126.119 25.4844H109.232V27.007H126.119V25.4844Z" fill="#D6D6D6"/>
<path d="M126.119 30.2163H109.232V31.8487H126.119V30.2163Z" fill="#D6D6D6"/>
<path d="M109.658 44.2087H125.694V35.0591H109.658V44.2087ZM111.291 36.5817H124.062V42.6997H111.291V36.5817Z" fill="#D6D6D6"/>
<path d="M104.596 45.1689V24.1399C105.556 22.0823 106.407 19.8463 107.093 17.5967L105.584 16.7188C104.089 21.9726 101.908 26.7463 99.1641 30.7518L100.069 32.3019C101.016 30.9027 102.017 29.2429 102.964 27.5144V45.1826H104.596V45.1689Z" fill="#D6D6D6"/>
<path d="M166.655 45.1689V24.1399C167.615 22.0823 168.466 19.8463 169.151 17.5967L167.642 16.7188C166.147 21.9726 163.966 26.7463 161.223 30.7518L162.128 32.3019C163.075 30.9027 164.076 29.2429 165.022 27.5144V45.1826H166.655V45.1689Z" fill="#D6D6D6"/>
<path d="M127.902 20.6419H117.984L119.04 20.0383L119.081 20.0109V19.9697C118.944 19.6817 118.629 19.0232 118.286 18.3236C117.97 17.6652 117.655 16.993 117.504 16.6501L117.476 16.5952L115.967 17.4594L115.995 17.5006C116.53 18.5157 116.996 19.4485 117.408 20.3401C117.463 20.4636 117.504 20.5596 117.517 20.6282H107.586V22.2606H127.915V20.6282L127.902 20.6419Z" fill="#D6D6D6"/>
<path d="M84.1166 19.3937H82.6077V24.7298H79.7407V17.1577H78.2318V24.7298H75.2414V19.3937H73.7324V26.2387H84.1166V19.3937Z" fill="#D6D6D6"/>
<path d="M83.4017 29.2148H74.1973V30.7375H83.4017V29.2148Z" fill="#D6D6D6"/>
<path d="M76.1851 36.5951V35.2233H80.8216V38.5978C80.7668 39.7775 80.7119 40.1342 80.3004 40.6966V40.7241L81.2194 42.329L81.2606 42.3016C82.0699 41.6431 83.4691 40.4497 85.3896 38.7625L85.417 38.735L84.69 37.473L84.6625 37.4181L82.3443 39.4072V33.7007H74.5664V36.0052C74.7859 39.1465 74.004 41.4099 72.2345 42.6994L72.207 42.7268L73.0438 44.1946L73.0712 44.2495L73.1124 44.2083C75.3209 42.3976 76.3634 39.8324 76.1988 36.6088" fill="#D6D6D6"/>
<path d="M66.2422 24.3047L67.1613 25.8822C69.507 23.5365 71.5234 20.697 73.0049 17.6517L71.592 16.8286C70.138 19.8053 68.2998 22.3705 66.2422 24.3047Z" fill="#D6D6D6"/>
<path d="M65.8301 33.8248L66.6669 35.2788L66.6943 35.3337L66.7355 35.2788C67.6271 34.2363 68.505 33.1389 69.3418 32.0003V45.1554H70.8645V29.5037C71.5503 28.2829 72.2088 26.9248 72.8398 25.4571V25.4159L71.3857 24.5654L71.3583 24.6203C69.9591 28.1183 68.1072 31.2047 65.8438 33.7836L65.8164 33.811L65.8301 33.8248Z" fill="#D6D6D6"/>
<path d="M89.6293 35.6487C88.6279 33.0698 87.8872 29.5718 87.4208 25.2508C87.5717 24.7981 87.7637 24.3317 87.9969 23.879H92.0573C91.7418 28.8173 90.9325 32.7817 89.6293 35.6624M95.2261 23.879V22.3564H88.5045C89.0806 20.6005 89.7528 18.5566 89.986 16.8008H88.4085C87.4208 21.4099 85.9256 25.4154 83.9914 28.5704L84.9516 30.2302L85.6512 28.8311C85.9119 28.3647 86.1314 27.9806 86.296 27.6651C86.7761 31.7529 87.5991 35.0314 88.7514 37.4319C87.6403 39.3524 85.9256 41.3552 83.6622 43.3716L83.6348 43.3991L84.5127 44.908L84.5401 44.9629L84.5813 44.9217C86.9818 42.672 88.6417 40.7104 89.5196 39.078C90.521 40.8613 92.2082 43.015 94.1835 45.0177L94.2247 45.0589L95.1163 43.5088V43.4814V43.4539C93.0038 41.4375 91.3303 39.3524 90.4112 37.5691C92.1259 34.4278 93.1959 29.8324 93.5937 23.8927H95.2535L95.2261 23.879Z" fill="#D6D6D6"/>
<path d="M180.029 43.0697C179.7 43.0697 179.384 43.0697 179.083 43.0697V44.7021C179.727 44.7021 180.194 44.7021 180.509 44.7021C182.114 44.7021 182.992 44.3592 183.664 43.6733C184.323 43.0011 184.652 41.986 184.611 40.6554V25.4838H189V23.8515H184.611V16.8418H182.978V23.8377H169.508V25.4701H182.978V40.6417C182.978 42.2878 181.95 43.0697 180.029 43.0697Z" fill="#D6D6D6"/>
<path d="M176.38 37.6651L177.999 36.7186C177.135 34.949 175.969 32.6033 174.528 29.7227L173.047 30.5869C174.035 32.5347 175.159 34.9079 176.367 37.6651" fill="#D6D6D6"/>
<path d="M149.631 34.1533C148.589 35.3467 147.272 36.7048 145.365 38.0628C140.742 34.5648 138.753 30.7376 138.081 29.1327H152.759C152.402 30.1066 151.524 31.9996 149.631 34.167M159.316 22.2739V20.6553H146.462V16.5537H144.803V20.6553H131.949V22.2739H144.803V27.6512H136.449V28.776V28.9269C136.462 28.9818 136.49 29.0504 136.517 29.119C137.025 30.381 139.096 34.8803 144.021 38.9544C141.373 40.6005 137.724 42.1918 132.498 43.4401L133.458 45.0862C138.451 43.879 142.32 41.9997 145.31 39.9421C148.218 42.0683 152.347 43.9888 157.162 45.1136L157.958 43.6321C153.362 42.521 149.398 40.8337 146.641 38.9819C151.675 35.0724 153.788 30.7925 154.446 29.1327C154.597 28.7349 154.679 28.488 154.693 28.4331L153.349 27.6512H146.462V22.2739H159.316Z" fill="#D6D6D6"/>
<path d="M26.5845 37.446C26.3787 37.5558 26.1455 37.6106 25.8986 37.6106C25.3225 37.6106 24.8286 37.2951 24.568 36.8287L24.472 36.6093L20.3156 27.5008C20.2744 27.4048 20.247 27.2951 20.247 27.1853C20.247 26.7601 20.5899 26.4309 21.0015 26.4309C21.1661 26.4309 21.3307 26.4857 21.4541 26.5817L26.3513 30.066C26.7079 30.2992 27.1332 30.4364 27.5996 30.4364C27.8739 30.4364 28.1346 30.3815 28.3815 30.2992L51.4269 20.0522C47.298 15.1825 40.4941 12 32.7985 12C20.2058 11.9863 10 20.4912 10 30.9851C10 36.7053 13.0727 41.8631 17.8739 45.3473C18.2579 45.6217 18.5049 46.0743 18.5049 46.5819C18.5049 46.7465 18.4637 46.9111 18.4226 47.062C18.0385 48.4886 17.4212 50.7932 17.3937 50.9029C17.3389 51.0812 17.2703 51.2733 17.2703 51.4653C17.2703 51.8906 17.6132 52.2198 18.0248 52.2198C18.1894 52.2198 18.3265 52.1649 18.4637 52.0826L23.4569 49.2019C23.8273 48.9825 24.2251 48.8453 24.664 48.8453C24.8972 48.8453 25.1167 48.8864 25.3362 48.9413C27.6682 49.6135 30.1785 49.9838 32.7848 49.9838C45.3775 49.9838 55.5833 41.479 55.5833 30.9851C55.5833 27.8026 54.6368 24.8122 52.9907 22.1784L26.7354 37.3363L26.5708 37.4323L26.5845 37.446Z" fill="#D6D6D6"/>
</svg>
