<svg width="200" height="65" viewBox="0 0 200 65" fill="none" xmlns="http://www.w3.org/2000/svg">
<path d="M126.119 26.4844H109.232V28.007H126.119V26.4844Z" fill="#4D4D4D"/>
<path d="M126.119 31.2163H109.232V32.8487H126.119V31.2163Z" fill="#4D4D4D"/>
<path d="M109.658 45.2087H125.694V36.0591H109.658V45.2087ZM111.291 37.5817H124.062V43.6997H111.291V37.5817Z" fill="#4D4D4D"/>
<path d="M104.596 46.1689V25.1399C105.556 23.0823 106.407 20.8463 107.093 18.5967L105.584 17.7188C104.089 22.9726 101.908 27.7463 99.1641 31.7518L100.069 33.3019C101.016 31.9027 102.017 30.2429 102.964 28.5144V46.1826H104.596V46.1689Z" fill="#4D4D4D"/>
<path d="M166.655 46.1689V25.1399C167.615 23.0823 168.466 20.8463 169.151 18.5967L167.642 17.7188C166.147 22.9726 163.966 27.7463 161.223 31.7518L162.128 33.3019C163.075 31.9027 164.076 30.2429 165.022 28.5144V46.1826H166.655V46.1689Z" fill="#4D4D4D"/>
<path d="M127.902 21.6419H117.984L119.04 21.0383L119.081 21.0109V20.9697C118.944 20.6817 118.629 20.0232 118.286 19.3236C117.97 18.6652 117.655 17.993 117.504 17.6501L117.476 17.5952L115.967 18.4594L115.995 18.5006C116.53 19.5157 116.996 20.4485 117.408 21.3401C117.463 21.4636 117.504 21.5596 117.517 21.6282H107.586V23.2606H127.915V21.6282L127.902 21.6419Z" fill="#4D4D4D"/>
<path d="M84.1166 20.3937H82.6077V25.7298H79.7407V18.1577H78.2318V25.7298H75.2414V20.3937H73.7324V27.2387H84.1166V20.3937Z" fill="#4D4D4D"/>
<path d="M83.4017 30.2148H74.1973V31.7375H83.4017V30.2148Z" fill="#4D4D4D"/>
<path d="M76.1851 37.5951V36.2233H80.8216V39.5978C80.7668 40.7775 80.7119 41.1342 80.3004 41.6966V41.7241L81.2194 43.329L81.2606 43.3016C82.0699 42.6431 83.4691 41.4497 85.3896 39.7625L85.417 39.735L84.69 38.473L84.6625 38.4181L82.3443 40.4072V34.7007H74.5664V37.0052C74.7859 40.1465 74.004 42.4099 72.2345 43.6994L72.207 43.7268L73.0438 45.1946L73.0712 45.2495L73.1124 45.2083C75.3209 43.3976 76.3634 40.8324 76.1988 37.6088" fill="#4D4D4D"/>
<path d="M66.2422 25.3047L67.1613 26.8822C69.507 24.5365 71.5234 21.697 73.0049 18.6517L71.592 17.8286C70.138 20.8053 68.2998 23.3705 66.2422 25.3047Z" fill="#4D4D4D"/>
<path d="M65.8301 34.8248L66.6669 36.2788L66.6943 36.3337L66.7355 36.2788C67.6271 35.2363 68.505 34.1389 69.3418 33.0003V46.1554H70.8645V30.5037C71.5503 29.2829 72.2088 27.9248 72.8398 26.4571V26.4159L71.3857 25.5654L71.3583 25.6203C69.9591 29.1183 68.1072 32.2047 65.8438 34.7836L65.8164 34.811L65.8301 34.8248Z" fill="#4D4D4D"/>
<path d="M89.6293 36.6487C88.6279 34.0698 87.8872 30.5718 87.4208 26.2508C87.5717 25.7981 87.7637 25.3317 87.9969 24.879H92.0573C91.7418 29.8173 90.9325 33.7817 89.6293 36.6624M95.2261 24.879V23.3564H88.5045C89.0806 21.6005 89.7528 19.5566 89.986 17.8008H88.4085C87.4208 22.4099 85.9256 26.4154 83.9914 29.5704L84.9516 31.2302L85.6512 29.8311C85.9119 29.3647 86.1314 28.9806 86.296 28.6651C86.7761 32.7529 87.5991 36.0314 88.7514 38.4319C87.6403 40.3524 85.9256 42.3552 83.6622 44.3716L83.6348 44.3991L84.5127 45.908L84.5401 45.9629L84.5813 45.9217C86.9818 43.672 88.6417 41.7104 89.5196 40.078C90.521 41.8613 92.2082 44.015 94.1835 46.0177L94.2247 46.0589L95.1163 44.5088V44.4814V44.4539C93.0038 42.4375 91.3303 40.3524 90.4112 38.5691C92.1259 35.4278 93.1959 30.8324 93.5937 24.8927H95.2535L95.2261 24.879Z" fill="#4D4D4D"/>
<path d="M180.029 44.0697C179.7 44.0697 179.384 44.0697 179.083 44.0697V45.7021C179.727 45.7021 180.194 45.7021 180.509 45.7021C182.114 45.7021 182.992 45.3592 183.664 44.6733C184.323 44.0011 184.652 42.986 184.611 41.6554V26.4838H189V24.8515H184.611V17.8418H182.978V24.8377H169.508V26.4701H182.978V41.6417C182.978 43.2878 181.95 44.0697 180.029 44.0697Z" fill="#4D4D4D"/>
<path d="M176.38 38.6651L177.999 37.7186C177.135 35.949 175.969 33.6033 174.528 30.7227L173.047 31.5869C174.035 33.5347 175.159 35.9079 176.367 38.6651" fill="#4D4D4D"/>
<path d="M149.631 35.1533C148.589 36.3467 147.272 37.7048 145.365 39.0628C140.742 35.5648 138.753 31.7376 138.081 30.1327H152.759C152.402 31.1066 151.524 32.9996 149.631 35.167M159.316 23.2739V21.6553H146.462V17.5537H144.803V21.6553H131.949V23.2739H144.803V28.6512H136.449V29.776V29.9269C136.462 29.9818 136.49 30.0504 136.517 30.119C137.025 31.381 139.096 35.8803 144.021 39.9544C141.373 41.6005 137.724 43.1918 132.498 44.4401L133.458 46.0862C138.451 44.879 142.32 42.9997 145.31 40.9421C148.218 43.0683 152.347 44.9888 157.162 46.1136L157.958 44.6321C153.362 43.521 149.398 41.8337 146.641 39.9819C151.675 36.0724 153.788 31.7925 154.446 30.1327C154.597 29.7349 154.679 29.488 154.693 29.4331L153.349 28.6512H146.462V23.2739H159.316Z" fill="#4D4D4D"/>
<path d="M26.5845 38.446C26.3787 38.5558 26.1455 38.6106 25.8986 38.6106C25.3225 38.6106 24.8286 38.2951 24.568 37.8287L24.472 37.6093L20.3156 28.5008C20.2744 28.4048 20.247 28.2951 20.247 28.1853C20.247 27.7601 20.5899 27.4309 21.0015 27.4309C21.1661 27.4309 21.3307 27.4857 21.4541 27.5817L26.3513 31.066C26.7079 31.2992 27.1332 31.4364 27.5996 31.4364C27.8739 31.4364 28.1346 31.3815 28.3815 31.2992L51.4269 21.0522C47.298 16.1825 40.4941 13 32.7985 13C20.2058 12.9863 10 21.4912 10 31.9851C10 37.7053 13.0727 42.8631 17.8739 46.3473C18.2579 46.6217 18.5049 47.0743 18.5049 47.5819C18.5049 47.7465 18.4637 47.9111 18.4226 48.062C18.0385 49.4886 17.4212 51.7932 17.3937 51.9029C17.3389 52.0812 17.2703 52.2733 17.2703 52.4653C17.2703 52.8906 17.6132 53.2198 18.0248 53.2198C18.1894 53.2198 18.3265 53.1649 18.4637 53.0826L23.4569 50.2019C23.8273 49.9825 24.2251 49.8453 24.664 49.8453C24.8972 49.8453 25.1167 49.8864 25.3362 49.9413C27.6682 50.6135 30.1785 50.9838 32.7848 50.9838C45.3775 50.9838 55.5833 42.479 55.5833 31.9851C55.5833 28.8026 54.6368 25.8122 52.9907 23.1784L26.7354 38.3363L26.5708 38.4323L26.5845 38.446Z" fill="#1AAD19"/>
</svg>
