<svg width="200" height="65" viewBox="0 0 200 65" fill="none" xmlns="http://www.w3.org/2000/svg">
<path d="M87.587 17.5693L74.6262 48.4903H66.17L59.7928 23.8104C59.405 22.2924 59.0709 21.7355 57.8911 21.0961C55.9689 20.0525 52.7926 19.0749 50 18.4644L50.1898 17.5693H63.8022C64.6918 17.5684 65.5524 17.8855 66.2286 18.4634C66.9049 19.0413 67.3522 19.8419 67.49 20.7208L70.8601 38.615L79.1844 17.5693H87.587ZM120.723 38.3964C120.756 30.233 109.437 29.7834 109.516 26.1369C109.54 25.0273 110.596 23.8475 112.906 23.5464C115.613 23.2893 118.34 23.7681 120.797 24.9324L122.2 18.3736C119.807 17.4741 117.273 17.009 114.717 17C106.809 17 101.245 21.2075 101.195 27.2259C101.146 31.6768 105.168 34.1559 108.2 35.6409C111.318 37.1547 112.366 38.1283 112.349 39.4813C112.329 41.5603 109.866 42.4719 107.564 42.509C103.542 42.5709 101.212 41.4241 99.3474 40.5579L97.8995 47.3311C99.7681 48.1891 103.217 48.9399 106.793 48.9729C115.196 48.9729 120.694 44.8231 120.723 38.3964ZM141.6 48.4903H149L142.544 17.5693H135.713C134.983 17.5625 134.268 17.7752 133.661 18.1797C133.053 18.5842 132.581 19.162 132.306 19.838L120.307 48.4903H128.705L130.376 43.8703H140.639L141.6 48.4903ZM132.677 37.5343L136.885 25.9224L139.31 37.5343H132.677ZM99.0174 17.5693L92.405 48.4903H84.4025L91.0231 17.5693H99.0174Z" fill="#1A1F71"/>
</svg>
