<svg width="284" height="207" viewBox="0 0 284 207" fill="none" xmlns="http://www.w3.org/2000/svg">
<g clip-path="url(#clip0_5646_6993)">
<path d="M220.326 85.791H227.332V121.209H220.326V85.791Z" fill="#727171"/>
<path d="M276.917 85.791H284.001V115.039C283.962 118.436 281.175 121.209 277.846 121.209C276.492 121.209 275.137 120.701 274.13 119.881L241.848 93.8742V121.209H234.842V91.9608C234.842 88.5245 237.59 85.791 240.996 85.791C242.351 85.791 243.667 86.2596 244.712 87.1187L276.956 113.125V85.791H276.917Z" fill="#727171"/>
<path d="M212.894 96.4124V99.9659C212.894 105.823 208.133 110.587 202.365 110.587H170.78V121.209H163.773V85.791H202.404C208.171 85.791 212.932 90.555 212.932 96.4124H212.894ZM205.888 96.4124C205.888 94.499 204.301 92.8589 202.365 92.8589H170.78V103.48H202.365C204.262 103.48 205.888 101.918 205.888 99.9268V96.3734V96.4124Z" fill="#727171"/>
<path d="M138.381 85.791H145.387V121.209H138.381V85.791Z" fill="#727171"/>
<path d="M55.584 85.791H62.5901V121.209H55.584V85.791Z" fill="#727171"/>
<path d="M49.8945 121.209H38.166L18.9669 106.682L6.96743 115.195V121.209H0V85.791H6.96743V106.526L36.308 85.791H48.501L24.9666 102.426L49.8945 121.209Z" fill="#727171"/>
<path d="M117.826 121.209C115.465 121.209 113.414 119.842 112.446 117.85L100.447 93.679L88.4472 117.85C87.4795 119.764 85.4279 121.131 83.0668 121.131C80.2411 121.131 77.8412 119.139 77.2606 116.523L70.0996 85.752H77.338L83.4925 112.11L94.7953 89.3054C95.8404 87.1968 98.008 85.752 100.447 85.752C102.885 85.752 105.053 87.2358 106.098 89.3054L117.439 112.11L123.594 85.752H130.755L123.594 116.562C122.936 119.178 120.575 121.17 117.788 121.17L117.826 121.209Z" fill="#727171"/>
<path d="M152.857 19.8372C153.09 30.9272 148.6 61.3856 142.368 61.5027C136.136 61.6199 130.484 31.3567 130.252 20.3058C130.02 9.25484 134.936 0.117319 141.168 0.000171329C147.4 -0.116976 152.625 8.7472 152.857 19.8372Z" fill="#8FB0DC"/>
<path d="M112.601 25.4211C118.291 34.91 129.478 63.5331 124.136 66.7742C118.794 70.0153 98.8984 46.6639 93.247 37.1749C87.5957 27.6859 87.3247 17.3769 92.6664 14.0968C98.0081 10.8557 106.95 15.8931 112.601 25.382V25.4211Z" fill="#8FB0DC"/>
<path d="M80.3582 49.983C89.9578 55.3327 113.879 74.4669 110.86 79.9728C107.841 85.4787 79.0422 75.2869 69.4426 69.9371C59.843 64.5874 54.5013 55.7623 57.4818 50.2563C60.4624 44.7504 70.72 44.5942 80.3582 49.9439V49.983Z" fill="#8FB0DC"/>
<path d="M69.7129 138.703C79.1189 132.962 107.492 121.677 110.705 127.066C113.917 132.455 90.77 152.526 81.364 158.227C71.958 163.928 61.7391 164.202 58.4876 158.813C55.2749 153.424 60.2682 144.404 69.6742 138.703H69.7129Z" fill="#8FB0DC"/>
<path d="M94.0617 171.27C99.3647 161.586 118.332 137.453 123.789 140.499C129.247 143.545 119.144 172.598 113.841 182.282C108.538 191.966 99.7905 197.355 94.3326 194.348C88.8748 191.341 88.72 180.993 94.023 171.27H94.0617Z" fill="#8FB0DC"/>
<path d="M131.298 187.163C131.065 176.073 135.556 145.615 141.788 145.497C148.02 145.38 153.671 175.643 153.903 186.694C154.135 197.784 149.219 206.844 142.987 206.961C136.755 207.078 131.53 198.214 131.298 187.124V187.163Z" fill="#8FB0DC"/>
<path d="M171.399 182.204C165.709 172.715 154.522 144.092 159.864 140.851C165.206 137.61 185.102 160.961 190.753 170.45C196.404 179.939 196.675 190.248 191.334 193.528C185.992 196.77 177.05 191.732 171.399 182.243V182.204Z" fill="#8FB0DC"/>
<path d="M203.642 157.642C194.043 152.292 170.121 133.158 173.14 127.652C176.16 122.146 204.958 132.338 214.558 137.687C224.157 143.037 229.499 151.862 226.519 157.368C223.499 162.874 213.281 163.03 203.642 157.681V157.642Z" fill="#8FB0DC"/>
<path d="M214.287 68.8829C204.881 74.6231 176.508 85.9083 173.296 80.5195C170.083 75.1307 193.23 55.0594 202.636 49.3582C212.042 43.6571 222.261 43.3837 225.513 48.7725C228.764 54.1613 223.732 63.1817 214.326 68.8829H214.287Z" fill="#8FB0DC"/>
<path d="M189.941 36.3162C184.638 46.0005 165.671 70.1329 160.213 67.0871C154.755 64.0412 164.858 34.9886 170.161 25.3044C175.464 15.6202 184.212 10.2314 189.67 13.2381C195.128 16.284 195.282 26.593 189.979 36.3162H189.941Z" fill="#8FB0DC"/>
</g>
<defs>
<clipPath id="clip0_5646_6993">
<rect width="284" height="207" fill="white"/>
</clipPath>
</defs>
</svg>
