<svg width="162" height="38" viewBox="0 0 162 38" fill="none" xmlns="http://www.w3.org/2000/svg">
<path d="M81.6031 1.75748C81.6031 2.70946 81.1715 5.37009 80.6199 5.37009C80.0684 5.37009 79.6367 2.73387 79.6367 1.75748C79.6367 0.781104 80.0684 0 80.6199 0C81.1715 0 81.6031 0.781104 81.6031 1.75748Z" fill="#8FB0DC"/>
<path d="M78.1262 2.17256C78.6058 3.00248 79.5171 5.51666 79.0614 5.78517C78.6058 6.05367 76.9272 4.00327 76.4476 3.14894C75.968 2.29461 75.968 1.41586 76.4476 1.14736C76.9032 0.878854 77.6706 1.31823 78.1502 2.17256H78.1262Z" fill="#8FB0DC"/>
<path d="M75.2972 4.24725C76.1125 4.73544 78.1508 6.4441 77.887 6.90788C77.6232 7.37166 75.1533 6.4441 74.338 5.95591C73.5226 5.46772 73.067 4.68662 73.3308 4.22284C73.5946 3.75905 74.4818 3.75905 75.2972 4.22284V4.24725Z" fill="#8FB0DC"/>
<path d="M73.8574 7.49365C74.7927 7.49365 77.4065 7.93302 77.4065 8.49444C77.4065 9.05586 74.8166 9.49523 73.8574 9.49523C72.8982 9.49523 72.1309 9.05586 72.1309 8.49444C72.1309 7.93302 72.8982 7.49365 73.8574 7.49365Z" fill="#8FB0DC"/>
<path d="M74.2171 11.0089C75.0324 10.5207 77.5024 9.59311 77.7662 10.0569C78.03 10.5207 76.0156 12.2293 75.1763 12.7175C74.337 13.2057 73.4737 13.2057 73.2099 12.7175C72.9462 12.2538 73.3778 11.4726 74.2171 10.9845V11.0089Z" fill="#8FB0DC"/>
<path d="M76.2798 13.8893C76.7594 13.0593 78.438 10.9845 78.8936 11.253C79.3492 11.5216 78.438 14.0357 77.9584 14.8657C77.4788 15.6956 76.7114 16.1594 76.2558 15.8909C75.8002 15.6223 75.8002 14.7192 76.2558 13.8893H76.2798Z" fill="#8FB0DC"/>
<path d="M79.4453 15.3292C79.4453 14.3772 79.877 11.7166 80.4285 11.7166C80.98 11.7166 81.4117 14.3528 81.4117 15.3292C81.4117 16.3055 80.98 17.0866 80.4285 17.0866C79.877 17.0866 79.4453 16.3055 79.4453 15.3292Z" fill="#8FB0DC"/>
<path d="M82.9225 14.9633C82.4429 14.1334 81.5317 11.6192 81.9873 11.3507C82.4429 11.0822 84.1215 13.1326 84.6011 13.9869C85.0807 14.8169 85.0807 15.72 84.6011 15.9885C84.1455 16.257 83.3781 15.8176 82.8985 14.9633H82.9225Z" fill="#8FB0DC"/>
<path d="M85.7519 12.8882C84.9366 12.4 82.8983 10.6913 83.1621 10.2275C83.4258 9.76377 85.8958 10.6913 86.7111 11.1795C87.5264 11.6677 87.9821 12.4488 87.7183 12.9126C87.4545 13.3764 86.5672 13.3764 85.7519 12.9126V12.8882Z" fill="#8FB0DC"/>
<path d="M87.1663 9.64172C86.231 9.64172 83.6172 9.20235 83.6172 8.64093C83.6172 8.07951 86.207 7.64014 87.1663 7.64014C88.1255 7.64014 88.8928 8.07951 88.8928 8.64093C88.8928 9.20235 88.1255 9.64172 87.1663 9.64172Z" fill="#8FB0DC"/>
<path d="M86.8071 6.12657C85.9917 6.61476 83.5218 7.54232 83.258 7.07854C82.9942 6.61476 85.0086 4.90609 85.8479 4.4179C86.6872 3.92971 87.5504 3.92971 87.8142 4.4179C88.078 4.88168 87.6464 5.66279 86.8071 6.15098V6.12657Z" fill="#8FB0DC"/>
<path d="M84.7671 3.24679C84.2875 4.07671 82.6089 6.15152 82.1533 5.88302C81.6977 5.61451 82.6089 3.10033 83.0885 2.27041C83.5681 1.44049 84.3355 0.976707 84.7911 1.24521C85.2468 1.51372 85.2468 2.41687 84.7911 3.24679H84.7671Z" fill="#8FB0DC"/>
<path d="M124.938 17.1108H128.918V37.3707H124.938V17.1108Z" fill="white"/>
<path d="M157.023 17.1108H161.028V33.8314C161.004 35.7597 159.445 37.3707 157.527 37.3707C156.76 37.3707 155.992 37.0778 155.417 36.614L137.096 21.7242V37.3463H133.115V20.6258C133.115 18.6486 134.674 17.0864 136.616 17.0864C137.384 17.0864 138.127 17.3549 138.727 17.8431L157 32.7329V17.1108H157.023Z" fill="white"/>
<path d="M120.717 23.1888V25.2148C120.717 28.5833 118.007 31.2928 114.745 31.2928H96.8323V37.3707H92.8516V17.1108H114.745C118.007 17.1108 120.717 19.8203 120.717 23.1888ZM116.736 23.1888C116.736 22.0904 115.825 21.1628 114.745 21.1628H96.8323V27.2408H114.745C115.825 27.2408 116.736 26.3376 116.736 25.2148V23.1888Z" fill="white"/>
<path d="M78.4629 17.1108H82.4436V37.3707H78.4629V17.1108Z" fill="white"/>
<path d="M31.5098 17.1108H35.4905V37.3707H31.5098V17.1108Z" fill="white"/>
<path d="M28.2966 37.3707H21.6541L10.7671 29.0715L3.98071 33.929V37.3707H0V17.1108H3.95673V28.9739L20.599 17.1108H27.5053L14.1723 26.6305L28.2966 37.3707Z" fill="white"/>
<path d="M66.8075 37.3707C65.4646 37.3707 64.3135 36.5896 63.762 35.4668L56.9756 21.6266L50.1892 35.4668C49.6377 36.5652 48.4866 37.3463 47.1437 37.3463C45.561 37.3463 44.1942 36.2235 43.8344 34.7101L39.7578 17.1108H43.8584L47.3595 32.1959L53.7622 19.1368C54.3618 17.9164 55.5847 17.1108 56.9756 17.1108C58.3664 17.1108 59.5894 17.9408 60.1889 19.1368L66.6156 32.1959L70.1167 17.1108H74.1934L70.1167 34.7345C69.757 36.2479 68.4141 37.3707 66.8075 37.3707Z" fill="white"/>
</svg>
