<svg width="200" height="65" viewBox="0 0 200 65" fill="none" xmlns="http://www.w3.org/2000/svg">
<g clip-path="url(#clip0_6372_8650)">
<path d="M88.587 17.0807L75.6262 48.0018H67.17L60.7928 23.3219C60.405 21.8039 60.0709 21.247 58.8911 20.6076C56.9689 19.564 53.7926 18.5864 51 17.9759L51.1898 17.0807H64.8022C65.6918 17.0799 66.5524 17.397 67.2286 17.9749C67.9049 18.5528 68.3522 19.3534 68.49 20.2322L71.8601 38.1265L80.1844 17.0807H88.587ZM121.723 37.9079C121.756 29.7445 110.437 29.2949 110.516 25.6484C110.54 24.5387 111.596 23.359 113.906 23.0579C116.613 22.8008 119.34 23.2796 121.797 24.4439L123.2 17.8851C120.807 16.9856 118.273 16.5205 115.717 16.5115C107.81 16.5115 102.245 20.719 102.195 26.7374C102.146 31.1882 106.168 33.6674 109.2 35.1524C112.318 36.6662 113.366 37.6398 113.349 38.9928C113.329 41.0718 110.866 41.9834 108.564 42.0205C104.542 42.0824 102.212 40.9356 100.347 40.0694L98.8995 46.8426C100.768 47.7006 104.217 48.4514 107.793 48.4844C116.196 48.4844 121.694 44.3346 121.723 37.9079ZM142.6 48.0018H150L143.544 17.0807H136.713C135.983 17.074 135.268 17.2867 134.661 17.6912C134.053 18.0957 133.581 18.6735 133.306 19.3495L121.307 48.0018H129.705L131.376 43.3817H141.639L142.6 48.0018ZM133.677 37.0457L137.885 25.4339L140.31 37.0457H133.677ZM100.017 17.0807L93.405 48.0018H85.4025L92.0231 17.0807H100.017Z" fill="#D6D6D6"/>
</g>
<defs>
<clipPath id="clip0_6372_8650">
<rect width="200" height="65" fill="white"/>
</clipPath>
</defs>
</svg>
