<svg width="200" height="65" viewBox="0 0 200 65" fill="none" xmlns="http://www.w3.org/2000/svg">
<path d="M167.158 19.9792L163.338 44.1573C163.324 44.2461 163.329 44.3369 163.353 44.4235C163.377 44.5101 163.42 44.5903 163.478 44.6584C163.537 44.7266 163.609 44.7811 163.69 44.8182C163.772 44.8552 163.86 44.8739 163.949 44.8728H168.47C168.63 44.8742 168.784 44.818 168.906 44.7144C169.028 44.6107 169.109 44.4665 169.135 44.3079L172.955 20.1297C172.969 20.041 172.964 19.9501 172.939 19.8635C172.915 19.777 172.873 19.6968 172.814 19.6286C172.756 19.5604 172.684 19.5059 172.602 19.4689C172.521 19.4318 172.433 19.4132 172.343 19.4142H167.823C167.663 19.411 167.507 19.4666 167.385 19.5705C167.262 19.6745 167.182 19.8197 167.158 19.9792ZM162.331 27.0349H158.041C157.882 27.0333 157.727 27.0894 157.606 27.1929C157.484 27.2964 157.403 27.4404 157.378 27.5989L157.236 28.489C157.236 28.489 153.904 24.8499 148.006 27.3092C144.622 28.7173 142.998 31.6265 142.307 33.7578C142.307 33.7578 140.113 40.2352 145.074 43.8005C145.074 43.8005 149.675 47.2296 154.856 43.5895L154.766 44.1573C154.745 44.2907 154.769 44.4272 154.832 44.5461C154.896 44.6649 154.996 44.7595 155.118 44.8153C155.199 44.8537 155.288 44.8728 155.377 44.8728H159.67C159.829 44.876 159.985 44.8205 160.107 44.7165C160.23 44.6125 160.31 44.4673 160.334 44.3079L162.945 27.7505C162.959 27.6618 162.954 27.5709 162.93 27.4845C162.905 27.3981 162.862 27.3182 162.803 27.2507C162.745 27.182 162.672 27.1269 162.591 27.0894C162.509 27.052 162.42 27.034 162.331 27.0349ZM156.019 36.1855C155.852 37.3424 155.271 38.3979 154.386 39.1542C153.497 39.9132 152.366 40.323 151.201 40.3081C150.744 40.3134 150.29 40.2468 149.853 40.1105C148.001 39.5158 146.944 37.7375 147.248 35.8095C147.417 34.6532 147.998 33.5985 148.883 32.8428C149.771 32.0833 150.901 31.6722 152.066 31.685C152.523 31.6803 152.978 31.7476 153.414 31.8845C155.277 32.4754 156.329 34.2566 156.024 36.1865H156.019V36.1855ZM133.115 36.643C135.441 36.643 137.691 35.8105 139.458 34.2969C141.221 32.7884 142.389 30.6925 142.748 28.3902C143.5 23.601 139.759 19.4209 134.455 19.4209H125.912C125.752 19.4194 125.598 19.4756 125.476 19.5792C125.354 19.6829 125.273 19.8272 125.248 19.9859L121.427 44.164C121.407 44.2974 121.43 44.434 121.493 44.5528C121.557 44.6716 121.658 44.7662 121.78 44.822C121.861 44.8604 121.949 44.8796 122.039 44.8796H126.562C126.722 44.8811 126.876 44.8249 126.998 44.7212C127.12 44.6175 127.201 44.4732 127.226 44.3146L128.347 37.2147C128.371 37.0551 128.451 36.9097 128.574 36.8055C128.696 36.7014 128.852 36.6456 129.012 36.6488L133.115 36.643ZM136.898 28.1725C136.619 29.9432 135.25 31.2467 132.631 31.2467H129.282L130.299 24.8077H133.588C136.296 24.8125 137.177 26.4095 136.898 28.1773V28.1725Z" fill="#D6D6D6"/>
<path d="M116.273 27.4455L111.1 36.1788L108.474 27.5097C108.433 27.3714 108.348 27.2503 108.232 27.1646C108.117 27.079 107.977 27.0335 107.834 27.0349H103.165C103.044 27.0333 102.926 27.0757 102.834 27.1543C102.742 27.2329 102.681 27.3425 102.663 27.4627C102.651 27.5425 102.66 27.6238 102.687 27.6997L107.392 42.3023L103.136 49.1835C103.1 49.2401 103.076 49.3036 103.065 49.37C103.054 49.4364 103.056 49.5044 103.072 49.5698C103.088 49.6352 103.118 49.6965 103.158 49.7502C103.198 49.8038 103.249 49.8486 103.307 49.8817C103.385 49.9268 103.474 49.95 103.564 49.9489H108.593C108.736 49.9494 108.877 49.9126 109.003 49.842C109.128 49.7714 109.233 49.6695 109.308 49.546L122.451 27.8042C122.498 27.7285 122.525 27.6411 122.526 27.5515C122.528 27.4619 122.506 27.3735 122.461 27.2958C122.417 27.218 122.353 27.1535 122.275 27.1091C122.198 27.0647 122.11 27.0421 122.021 27.0436H116.993C116.849 27.0422 116.707 27.0786 116.581 27.149C116.455 27.2194 116.349 27.3216 116.273 27.4455ZM100.518 27.0349H96.2245C96.0648 27.0334 95.9099 27.0897 95.7879 27.1936C95.6659 27.2974 95.585 27.442 95.5599 27.6009L95.4209 28.49C95.4209 28.49 92.0866 24.8509 86.1881 27.3102C82.8052 28.7183 81.1799 31.6275 80.4915 33.7588C80.4915 33.7588 78.2959 40.2362 83.2565 43.8015C83.2565 43.8015 87.8582 47.2306 93.0387 43.5905L92.9492 44.1583C92.9281 44.2917 92.9512 44.4284 93.0149 44.5473C93.0785 44.6662 93.1792 44.7607 93.3015 44.8163C93.3824 44.8547 93.471 44.8738 93.5605 44.8738H97.8526C98.012 44.875 98.1665 44.8187 98.2882 44.715C98.4099 44.6114 98.4908 44.4674 98.5163 44.3089L101.128 27.7515C101.149 27.6179 101.126 27.481 101.063 27.3619C100.999 27.2428 100.898 27.1481 100.776 27.0925C100.694 27.0548 100.607 27.0352 100.518 27.0349ZM94.205 36.1875C94.0361 37.3429 93.4553 38.3968 92.5712 39.1523C91.683 39.9112 90.5528 40.322 89.3882 40.3091C88.932 40.3142 88.4778 40.2475 88.0419 40.1115C86.191 39.5168 85.1351 37.7385 85.4388 35.8096C85.608 34.6508 86.1913 33.5941 87.0793 32.838C87.9707 32.0786 89.1045 31.6695 90.2718 31.686C90.7288 31.6812 91.1849 31.7484 91.621 31.8855C93.4652 32.4764 94.5154 34.2566 94.2108 36.1875H94.205ZM71.3016 36.6441C73.6237 36.6428 75.8698 35.8103 77.639 34.295C79.4008 32.7866 80.567 30.6914 80.9257 28.3903C81.6779 23.602 77.936 19.4219 72.6346 19.4219H64.0902C63.9308 19.4203 63.7761 19.4763 63.6541 19.5798C63.5322 19.6833 63.4511 19.8274 63.4256 19.9859L59.6171 44.1573C59.5958 44.2909 59.6188 44.4278 59.6825 44.5469C59.7461 44.666 59.847 44.7607 59.9694 44.8163C60.0503 44.8537 60.1389 44.8738 60.2284 44.8738H64.7491C64.9088 44.8754 65.0637 44.8191 65.1857 44.7152C65.3077 44.6114 65.3886 44.4668 65.4137 44.3079L66.5334 37.2081C66.5571 37.0486 66.6377 36.9034 66.76 36.7994C66.8823 36.6955 67.038 36.6399 67.1979 36.6431L71.3016 36.6441ZM75.0854 28.1725C74.8064 29.9432 73.4382 31.2467 70.8189 31.2467H67.4703L68.4852 24.8077H71.7739C74.4827 24.8125 75.3634 26.4105 75.0854 28.1773V28.1725Z" fill="#D6D6D6"/>
<path d="M42.0762 20.664C42.1781 15.3252 37.8069 11.2295 31.7961 11.2295H19.3632C19.0735 11.2294 18.7932 11.3334 18.5729 11.523C18.3526 11.7126 18.2068 11.9752 18.1616 12.2635L13.1801 43.6221C13.1578 43.7642 13.1663 43.9095 13.2051 44.0479C13.2439 44.1864 13.312 44.3147 13.4048 44.4241C13.4975 44.5335 13.6127 44.6214 13.7424 44.6816C13.8721 44.7418 14.0132 44.7731 14.156 44.7731H21.5217L20.3705 52.0341C20.3483 52.1762 20.3568 52.3215 20.3956 52.46C20.4344 52.5984 20.5025 52.7268 20.5953 52.8362C20.688 52.9455 20.8032 53.0334 20.9329 53.0936C21.0626 53.1539 21.2037 53.1851 21.3465 53.1851H27.3468C27.6362 53.1851 27.8943 53.0806 28.1152 52.8916C28.3341 52.7017 28.3703 52.4399 28.416 52.1511L30.1775 41.7114C30.2222 41.4236 30.3679 41.0496 30.5878 40.8596C30.8078 40.6697 31.0001 40.5661 31.2905 40.5661H34.9619C40.8489 40.5661 45.8428 36.3505 46.7559 30.488C47.4024 26.327 45.6314 22.5411 42.0762 20.664Z" fill="#A5A5A5"/>
<path d="M23.116 33.2083L21.2812 44.9276L20.1291 52.2787C20.107 52.4209 20.1157 52.5661 20.1546 52.7045C20.1935 52.8429 20.2617 52.9712 20.3546 53.0805C20.4474 53.1898 20.5627 53.2775 20.6924 53.3377C20.8221 53.3978 20.9632 53.4289 21.106 53.4288H27.4567C27.7462 53.4287 28.0261 53.3245 28.246 53.1349C28.466 52.9453 28.6115 52.6829 28.6564 52.3948L30.3302 41.7105C30.3754 41.4223 30.5211 41.1598 30.7412 40.9703C30.9613 40.7807 31.2413 40.6765 31.5309 40.6765H35.2689C41.1559 40.6765 46.1498 36.3505 47.0639 30.488C47.7113 26.3271 45.6319 22.5402 42.0766 20.6631C42.0671 21.1062 42.029 21.5484 41.9614 21.9868C41.0483 27.8474 36.0525 32.1742 30.1674 32.1742H24.3166C24.027 32.1746 23.7469 32.279 23.5268 32.4687C23.3068 32.6584 23.1611 32.92 23.116 33.2083Z" fill="#D6D6D6"/>
<path d="M21.2801 44.9268H13.8915C13.7488 44.9268 13.6077 44.8956 13.478 44.8353C13.3484 44.7751 13.2333 44.6872 13.1406 44.5778C13.0479 44.4684 12.9799 44.34 12.9412 44.2015C12.9025 44.0631 12.8941 43.9178 12.9166 43.7758L17.8981 11.952C17.9432 11.6638 18.0889 11.4014 18.309 11.2118C18.5291 11.0223 18.8092 10.9181 19.0987 10.918H31.7963C37.8071 10.918 42.1783 15.3245 42.0764 20.6623C40.5806 19.8719 38.823 19.4202 36.8978 19.4202H26.3121C26.0223 19.42 25.7421 19.5241 25.5218 19.7137C25.3015 19.9033 25.1556 20.1659 25.1105 20.4542L23.1167 33.2075L21.2791 44.9268H21.2801Z" fill="#D6D6D6"/>
</svg>
