<svg width="200" height="65" viewBox="0 0 200 65" fill="none" xmlns="http://www.w3.org/2000/svg">
<g clip-path="url(#clip0_6372_8646)">
<path d="M59.0479 0.171977C58.411 0.172756 57.7742 0.176966 57.1373 0.184603C56.5061 0.205645 55.8622 0.239311 55.2352 0.352936C54.2875 0.502692 53.389 0.875302 52.6135 1.44011C51.838 2.00492 51.2076 2.74579 50.7743 3.60177C50.4798 4.18252 50.2946 4.77169 50.1852 5.41135C50.0673 6.03419 50.0295 6.67385 50.0168 7.3051C50.0082 7.59822 50.0026 7.89141 50 8.18464V56.8203C50 57.1149 50.0084 57.4011 50.0126 57.6915C50.0295 58.3227 50.0673 58.9666 50.181 59.5936C50.2946 60.2249 50.484 60.8183 50.7785 61.399C51.3588 62.5415 52.2873 63.47 53.4298 64.0503C54.0105 64.3448 54.5997 64.5342 55.2394 64.6479C55.8622 64.7615 56.5019 64.7994 57.1331 64.8162L58.0085 64.8288H142.992L143.863 64.8162C144.494 64.7994 145.138 64.7615 145.765 64.6479C146.396 64.5342 146.989 64.3491 147.566 64.0545C148.711 63.4747 149.642 62.5444 150.221 61.399C150.516 60.8183 150.705 60.2291 150.815 59.5894C150.928 58.9666 150.966 58.3269 150.983 57.6957C150.992 57.4011 150.996 57.1149 150.996 56.8203L151 55.7851V8.18044C151 7.88585 150.992 7.59969 150.983 7.30931C150.975 6.67191 150.919 6.03603 150.815 5.40714C150.613 4.13984 150.017 2.96862 149.11 2.06088C148.203 1.15314 147.032 0.555344 145.765 0.352936C145.136 0.249234 144.5 0.192964 143.863 0.184603C143.227 0.166617 142.592 0.162407 141.956 0.171977H59.0479ZM59.0479 2.32664H142.97C143.248 2.32664 143.522 2.33506 143.8 2.33927C144.284 2.3561 144.852 2.38135 145.378 2.47393C145.836 2.5581 146.219 2.68435 146.585 2.86952C147.324 3.24425 147.924 3.8441 148.298 4.58231C148.491 4.9638 148.624 5.37252 148.694 5.79431C148.786 6.31193 148.812 6.88006 148.824 7.36823C148.833 7.64177 148.837 7.91531 148.837 8.19727V56.8119C148.837 57.0855 148.837 57.359 148.824 57.6368C148.812 58.1207 148.786 58.6888 148.69 59.2149C148.599 59.8341 148.36 60.4224 147.994 60.93C147.627 61.4376 147.144 61.8496 146.585 62.1313C146.206 62.323 145.801 62.4564 145.382 62.5268C144.863 62.6094 144.338 62.6544 143.812 62.6615L142.97 62.6741H58.0211C57.7433 62.6741 57.4614 62.6657 57.1963 62.6615C56.6677 62.6547 56.1402 62.6097 55.6181 62.5268C55.1594 62.4427 54.7765 62.3164 54.4061 62.1313C53.6679 61.758 53.069 61.1576 52.6975 60.4185C52.5053 60.0368 52.3719 59.6281 52.302 59.2065C52.2184 58.6873 52.1734 58.1626 52.1673 57.6368C52.1616 57.3605 52.1588 57.0841 52.1589 56.8077V8.19306C52.1589 7.91952 52.1589 7.64177 52.1673 7.36402C52.1841 6.88427 52.2094 6.32035 52.302 5.78589C52.3861 5.33139 52.5124 4.94843 52.6975 4.5781C53.0725 3.84111 53.6724 3.24268 54.4103 2.86952C54.7913 2.67903 55.1983 2.54574 55.6181 2.47393C56.1442 2.38135 56.7123 2.3519 57.1963 2.33927C57.4698 2.33085 57.7475 2.33085 58.0211 2.32664H59.0479ZM78.8692 17.8975C77.6067 17.9648 76.058 18.7349 75.1658 19.8165C74.362 20.7423 73.6508 22.2573 73.836 23.6797C75.2584 23.806 76.6766 22.9685 77.573 21.9206C78.4357 20.8349 79.0249 19.383 78.8692 17.9017V17.8975ZM88.157 19.665V42.7813H91.7425V34.8823H96.7083C101.245 34.8823 104.431 31.7723 104.431 27.2568C104.431 22.7539 101.308 19.6608 96.8219 19.6608L88.157 19.665ZM91.7425 22.6908H95.875C98.985 22.6908 100.761 24.3573 100.761 27.2736C100.761 30.1858 98.985 31.8691 95.8624 31.8691H91.7425V22.6908ZM78.4694 23.9533C76.5756 23.9953 74.9765 25.1316 74.0506 25.1316C73.0617 25.1316 71.5551 24.0206 69.9223 24.0501C68.8601 24.0766 67.8234 24.3807 66.9153 24.9322C66.0072 25.4837 65.2593 26.2634 64.746 27.1937C62.5282 31.0149 64.161 36.6835 66.3199 39.7976C67.3678 41.3379 68.6303 43.0338 70.2926 42.9707C71.8623 42.9118 72.4809 41.9523 74.3873 41.9523C76.2979 41.9523 76.8534 42.9707 78.5115 42.9413C80.2369 42.9118 81.3184 41.401 82.3621 39.8566C83.5657 38.1017 84.058 36.4057 84.0875 36.3173C84.058 36.2837 80.7629 35.0212 80.7335 31.2295C80.6998 28.0564 83.3216 26.5456 83.4436 26.453C81.9623 24.2647 79.6561 24.0206 78.8565 23.9575C78.7277 23.9494 78.5985 23.9508 78.4694 23.9533ZM112.995 25.624C108.828 25.624 106.236 27.867 106.042 30.9096H109.312C109.615 29.4031 110.865 28.4436 112.868 28.4436C114.981 28.4436 116.248 29.563 116.248 31.4357V32.7361L111.631 33.0054C107.629 33.2326 105.369 35.0422 105.369 37.9881C105.369 41.0181 107.675 43.0675 110.975 43.0675C113.188 43.0675 115.318 41.885 116.294 40.0081H116.374V42.7813H119.69V31.1663C119.69 27.7871 117.081 25.624 112.995 25.624ZM121.159 25.927L127.244 42.7982C127.244 42.8108 126.937 43.8082 126.937 43.8376C126.411 45.5631 125.548 46.2406 123.945 46.2406C123.654 46.2406 123.078 46.2406 122.821 46.1775V48.9802C123.074 49.0265 123.945 49.0602 124.231 49.0602C127.724 49.0602 129.39 47.7472 130.829 43.6609L137.142 25.927H133.489L129.23 39.6419H129.167L124.904 25.9228L121.159 25.927ZM116.248 35.139V36.4688C116.248 38.6614 114.354 40.3279 111.938 40.3279C110.078 40.3279 108.862 39.3684 108.862 37.8913C108.862 36.452 110.032 35.5346 112.098 35.3957L116.248 35.139Z" fill="#D6D6D6"/>
</g>
<defs>
<clipPath id="clip0_6372_8646">
<rect width="200" height="65" fill="white"/>
</clipPath>
</defs>
</svg>
