<svg width="200" height="65" viewBox="0 0 200 65" fill="none" xmlns="http://www.w3.org/2000/svg">
<g clip-path="url(#clip0_6372_8644)">
<path d="M44.1607 10C40.21 10 37.0137 13.2267 37.0137 17.2103V47.7911C37.0137 51.7715 40.21 55 44.1607 55H74.4842C78.4319 55 81.6295 51.7717 81.6295 47.7911V47.4782C81.4966 47.4224 70.0344 42.6001 64.2083 39.7745C60.2778 44.6532 55.2081 47.613 49.9443 47.613C41.0434 47.613 38.0207 39.7559 42.2353 34.5839C43.1543 33.4563 44.7175 32.3792 47.1437 31.7762C50.9391 30.8357 56.9794 32.3634 62.6407 34.2477C63.6591 32.3556 64.5157 30.2718 65.1538 28.0531H47.7076V26.2711H56.7036V23.0753H45.8078V21.2921H56.7036V16.7336C56.7036 16.7336 56.7036 15.9657 57.475 15.9657H61.8727V21.292H72.6441V23.0756H61.8727V26.2711H70.665C69.8237 29.7475 68.5462 32.9475 66.9426 35.7566C69.6111 36.7301 72.0063 37.6535 73.7915 38.2565C79.7458 40.2661 81.4147 40.5117 81.63 40.5373V17.2104C81.63 13.2268 78.4321 10.0002 74.4847 10.0002H44.1612L44.1607 10ZM49.0534 34.3812C48.6713 34.3857 48.2875 34.4067 47.9009 34.4451C46.7863 34.5581 44.6936 35.0541 43.5496 36.0749C40.1204 39.0913 42.1728 44.6055 49.1133 44.6055C53.1479 44.6055 57.179 42.004 60.3457 37.8383C56.263 35.8291 52.7467 34.338 49.0534 34.3812Z" fill="#D6D6D6"/>
<path d="M159.227 41.2831L157.235 45.6578L155.214 41.2831H153.24L156.315 47.3315V51.5506H158.126V47.3315L158.137 47.3079L161.2 41.2831H159.227ZM144.645 43.9298L146.05 48.1882H143.191L144.645 43.9298ZM146.481 49.4821L147.158 51.55H149.057L145.319 41.2824H143.867L140.142 51.55H142.042L142.748 49.4821H146.481ZM132.313 46.1915H130.296V42.6789H132.313C133.327 42.6789 133.932 43.5755 133.932 44.4422C133.932 45.2901 133.365 46.1913 132.313 46.1913M132.415 41.2828H128.471V51.5504H130.296V47.603H132.415C134.384 47.603 135.759 46.3029 135.759 44.4422C135.759 42.5814 134.384 41.283 132.415 41.283M119.242 51.5506H121.069V41.283H119.242L119.242 51.5506ZM106.4 41.2831V51.5507H112.546V50.1517H108.226V41.2831H106.4ZM95.9998 43.9298L97.4032 48.1882H94.5454L95.9998 43.9298ZM97.8362 49.4821L98.5131 51.55H100.41L96.6721 41.2824H95.2223L91.4966 51.55H93.395L94.1014 49.4821H97.8362ZM110.688 21.2113H102.857V18.3724H111.938V16.6043H102.857V13.0069H98.8087C98.3647 13.0069 98.0061 13.3838 98.0061 13.847V16.6043H88.9886V18.3724H98.0061V21.2114H90.3952V22.9778H105.555C105.555 22.9778 104.715 26.2959 100.556 29.8616C96.8308 27.0085 95.5858 24.7365 95.5858 24.7365H91.5187C93.1642 27.621 95.502 29.9307 98.0198 31.7631C95.7069 33.2831 92.7077 34.7482 88.8301 35.9212V38.0377C88.8301 38.0377 94.8127 36.8962 100.595 33.4496C106.387 36.8696 112.203 38.0377 112.203 38.0377V36.0341C108.481 34.6634 105.532 33.1559 103.216 31.7021C106.57 29.1881 109.51 25.7758 110.688 21.2113ZM136.128 13.3613H132.051V17.6699H122.003V19.405H132.051V34.8956C132.016 35.2505 131.739 35.5268 131.393 35.5457H129.321V37.3405H134.605C135.442 37.306 136.109 36.604 136.128 35.7341V19.4048H137.783V17.6697H136.128L136.128 13.3613ZM127.531 22.3279C127.382 22.0202 127.078 21.8081 126.724 21.805H123.327L125.974 30.2339H129.991L127.531 22.3279ZM117.498 13.1572L112.823 24.345H116.41V37.6571H120.333V19.9988H118.911L121.865 13.1574L117.498 13.1572ZM162.986 37.0465L161.553 32.1506C161.457 31.8381 161.177 31.6121 160.845 31.6121H157.047L158.149 35.3726H153.683V28.0871H162.452V26.3535H153.683V22.924H162.452V21.1904H140.569V22.924H149.337V26.3533H140.569V28.0869H149.337V35.3725H140.569V37.1062H162.987L162.968 37.0465H162.986ZM145.128 17.0543H157.899V19.6121H162.462V16.5815C162.46 16.5752 162.46 16.572 162.46 16.5642C162.46 15.8828 161.932 15.3317 161.279 15.3207H153.896V12.9355H149.122V15.3206H140.568V19.6121H145.128L145.128 17.0543Z" fill="#D6D6D6"/>
</g>
<defs>
<clipPath id="clip0_6372_8644">
<rect width="126" height="45" fill="white" transform="translate(37 10)"/>
</clipPath>
</defs>
</svg>
