<svg width="1200" height="212" viewBox="0 0 1200 212" fill="none" xmlns="http://www.w3.org/2000/svg">
<g clip-path="url(#clip0_6372_8694)">
<path d="M44.1607 10C40.21 10 37.0137 13.2267 37.0137 17.2103V47.7911C37.0137 51.7715 40.21 55 44.1607 55H74.4842C78.4319 55 81.6295 51.7717 81.6295 47.7911V47.4782C81.4966 47.4224 70.0344 42.6001 64.2083 39.7745C60.2778 44.6532 55.2081 47.613 49.9443 47.613C41.0434 47.613 38.0207 39.7559 42.2353 34.5839C43.1543 33.4563 44.7175 32.3792 47.1437 31.7762C50.9391 30.8357 56.9794 32.3634 62.6407 34.2477C63.6591 32.3556 64.5157 30.2718 65.1538 28.0531H47.7076V26.2711H56.7036V23.0753H45.8078V21.2921H56.7036V16.7336C56.7036 16.7336 56.7036 15.9657 57.475 15.9657H61.8727V21.292H72.6441V23.0756H61.8727V26.2711H70.665C69.8237 29.7475 68.5462 32.9475 66.9426 35.7566C69.6111 36.7301 72.0063 37.6535 73.7915 38.2565C79.7458 40.2661 81.4147 40.5117 81.63 40.5373V17.2104C81.63 13.2268 78.4321 10.0002 74.4847 10.0002H44.1612L44.1607 10ZM49.0534 34.3812C48.6713 34.3857 48.2875 34.4067 47.9009 34.4451C46.7863 34.5581 44.6936 35.0541 43.5496 36.0749C40.1204 39.0913 42.1728 44.6055 49.1133 44.6055C53.1479 44.6055 57.179 42.004 60.3457 37.8383C56.263 35.8291 52.7467 34.338 49.0534 34.3812Z" fill="#D6D6D6"/>
<path d="M159.227 41.2831L157.235 45.6578L155.214 41.2831H153.24L156.315 47.3315V51.5506H158.126V47.3315L158.137 47.3079L161.2 41.2831H159.227ZM144.645 43.9298L146.05 48.1882H143.191L144.645 43.9298ZM146.481 49.4821L147.158 51.55H149.057L145.319 41.2824H143.867L140.142 51.55H142.042L142.748 49.4821H146.481ZM132.313 46.1915H130.296V42.6789H132.313C133.327 42.6789 133.932 43.5755 133.932 44.4422C133.932 45.2901 133.365 46.1913 132.313 46.1913M132.415 41.2828H128.471V51.5504H130.296V47.603H132.415C134.384 47.603 135.759 46.3029 135.759 44.4422C135.759 42.5814 134.384 41.283 132.415 41.283M119.242 51.5506H121.069V41.283H119.242L119.242 51.5506ZM106.4 41.2831V51.5507H112.546V50.1517H108.226V41.2831H106.4ZM95.9998 43.9298L97.4032 48.1882H94.5454L95.9998 43.9298ZM97.8362 49.4821L98.5131 51.55H100.41L96.6721 41.2824H95.2223L91.4966 51.55H93.395L94.1014 49.4821H97.8362ZM110.688 21.2113H102.857V18.3724H111.938V16.6043H102.857V13.0069H98.8087C98.3647 13.0069 98.0061 13.3838 98.0061 13.847V16.6043H88.9886V18.3724H98.0061V21.2114H90.3952V22.9778H105.555C105.555 22.9778 104.715 26.2959 100.556 29.8616C96.8308 27.0085 95.5858 24.7365 95.5858 24.7365H91.5187C93.1642 27.621 95.502 29.9307 98.0198 31.7631C95.7069 33.2831 92.7077 34.7482 88.8301 35.9212V38.0377C88.8301 38.0377 94.8127 36.8962 100.595 33.4496C106.387 36.8696 112.203 38.0377 112.203 38.0377V36.0341C108.481 34.6634 105.532 33.1559 103.216 31.7021C106.57 29.1881 109.51 25.7758 110.688 21.2113ZM136.128 13.3613H132.051V17.6699H122.003V19.405H132.051V34.8956C132.016 35.2505 131.739 35.5268 131.393 35.5457H129.321V37.3405H134.605C135.442 37.306 136.109 36.604 136.128 35.7341V19.4048H137.783V17.6697H136.128L136.128 13.3613ZM127.531 22.3279C127.382 22.0202 127.078 21.8081 126.724 21.805H123.327L125.974 30.2339H129.991L127.531 22.3279ZM117.498 13.1572L112.823 24.345H116.41V37.6571H120.333V19.9988H118.911L121.865 13.1574L117.498 13.1572ZM162.986 37.0465L161.553 32.1506C161.457 31.8381 161.177 31.6121 160.845 31.6121H157.047L158.149 35.3726H153.683V28.0871H162.452V26.3535H153.683V22.924H162.452V21.1904H140.569V22.924H149.337V26.3533H140.569V28.0869H149.337V35.3725H140.569V37.1062H162.987L162.968 37.0465H162.986ZM145.128 17.0543H157.899V19.6121H162.462V16.5815C162.46 16.5752 162.46 16.572 162.46 16.5642C162.46 15.8828 161.932 15.3317 161.279 15.3207H153.896V12.9355H149.122V15.3206H140.568V19.6121H145.128L145.128 17.0543Z" fill="#D6D6D6"/>
</g>
<g clip-path="url(#clip1_6372_8694)">
<path d="M444.161 157C440.21 157 437.014 160.227 437.014 164.21V194.791C437.014 198.772 440.21 202 444.161 202H474.484C478.432 202 481.63 198.772 481.63 194.791V194.478C481.497 194.422 470.034 189.6 464.208 186.775C460.278 191.653 455.208 194.613 449.944 194.613C441.043 194.613 438.021 186.756 442.235 181.584C443.154 180.456 444.718 179.379 447.144 178.776C450.939 177.836 456.979 179.363 462.641 181.248C463.659 179.356 464.516 177.272 465.154 175.053H447.708V173.271H456.704V170.075H445.808V168.292H456.704V163.734C456.704 163.734 456.704 162.966 457.475 162.966H461.873V168.292H472.644V170.076H461.873V173.271H470.665C469.824 176.748 468.546 179.948 466.943 182.757C469.611 183.73 472.006 184.654 473.791 185.257C479.746 187.266 481.415 187.512 481.63 187.537V164.21C481.63 160.227 478.432 157 474.485 157H444.161L444.161 157ZM449.053 181.381C448.671 181.386 448.287 181.407 447.901 181.445C446.786 181.558 444.694 182.054 443.55 183.075C440.12 186.091 442.173 191.605 449.113 191.605C453.148 191.605 457.179 189.004 460.346 184.838C456.263 182.829 452.747 181.338 449.053 181.381Z" fill="#D6D6D6"/>
<path d="M559.227 188.283L557.235 192.658L555.214 188.283H553.24L556.315 194.331V198.551H558.126V194.331L558.137 194.308L561.2 188.283H559.227ZM544.645 190.93L546.05 195.188H543.191L544.645 190.93ZM546.481 196.482L547.158 198.55H549.057L545.319 188.282H543.867L540.142 198.55H542.042L542.748 196.482H546.481ZM532.313 193.191H530.296V189.679H532.313C533.327 189.679 533.932 190.575 533.932 191.442C533.932 192.29 533.365 193.191 532.313 193.191M532.415 188.283H528.471V198.55H530.296V194.603H532.415C534.384 194.603 535.759 193.303 535.759 191.442C535.759 189.581 534.384 188.283 532.415 188.283M519.242 198.551H521.069V188.283H519.242L519.242 198.551ZM506.4 188.283V198.551H512.546V197.152H508.226V188.283H506.4ZM496 190.93L497.403 195.188H494.545L496 190.93ZM497.836 196.482L498.513 198.55H500.41L496.672 188.282H495.222L491.497 198.55H493.395L494.101 196.482H497.836ZM510.688 168.211H502.857V165.372H511.938V163.604H502.857V160.007H498.809C498.365 160.007 498.006 160.384 498.006 160.847V163.604H488.989V165.372H498.006V168.211H490.395V169.978H505.555C505.555 169.978 504.715 173.296 500.556 176.862C496.831 174.009 495.586 171.736 495.586 171.736H491.519C493.164 174.621 495.502 176.931 498.02 178.763C495.707 180.283 492.708 181.748 488.83 182.921V185.038C488.83 185.038 494.813 183.896 500.595 180.45C506.387 183.87 512.203 185.038 512.203 185.038V183.034C508.481 181.663 505.532 180.156 503.216 178.702C506.57 176.188 509.51 172.776 510.688 168.211ZM536.128 160.361H532.051V164.67H522.003V166.405H532.051V181.896C532.016 182.251 531.739 182.527 531.393 182.546H529.321V184.34H534.605C535.442 184.306 536.109 183.604 536.128 182.734V166.405H537.783V164.67H536.128L536.128 160.361ZM527.531 169.328C527.382 169.02 527.078 168.808 526.724 168.805H523.327L525.974 177.234H529.991L527.531 169.328ZM517.498 160.157L512.823 171.345H516.41V184.657H520.333V166.999H518.911L521.865 160.157L517.498 160.157ZM562.986 184.046L561.553 179.151C561.457 178.838 561.177 178.612 560.845 178.612H557.047L558.149 182.373H553.683V175.087H562.452V173.353H553.683V169.924H562.452V168.19H540.569V169.924H549.337V173.353H540.569V175.087H549.337V182.372H540.569V184.106H562.987L562.968 184.046H562.986ZM545.128 164.054H557.899V166.612H562.462V163.581C562.46 163.575 562.46 163.572 562.46 163.564C562.46 162.883 561.932 162.332 561.279 162.321H553.896V159.936H549.122V162.321H540.568V166.612H545.128L545.128 164.054Z" fill="#D6D6D6"/>
</g>
<g clip-path="url(#clip2_6372_8694)">
<path d="M259.048 0.171977C258.411 0.172756 257.774 0.176966 257.137 0.184603C256.506 0.205645 255.862 0.239311 255.235 0.352936C254.288 0.502692 253.389 0.875302 252.613 1.44011C251.838 2.00492 251.208 2.74579 250.774 3.60177C250.48 4.18252 250.295 4.77169 250.185 5.41135C250.067 6.03419 250.029 6.67385 250.017 7.3051C250.008 7.59822 250.003 7.89141 250 8.18464V56.8203C250 57.1149 250.008 57.4011 250.013 57.6915C250.029 58.3227 250.067 58.9666 250.181 59.5936C250.295 60.2249 250.484 60.8183 250.779 61.399C251.359 62.5415 252.287 63.47 253.43 64.0503C254.011 64.3448 254.6 64.5342 255.239 64.6478C255.862 64.7615 256.502 64.7994 257.133 64.8162L258.008 64.8288H342.992L343.863 64.8162C344.494 64.7994 345.138 64.7615 345.765 64.6478C346.396 64.5342 346.989 64.3491 347.566 64.0545C348.711 63.4747 349.642 62.5444 350.221 61.399C350.516 60.8183 350.705 60.2291 350.815 59.5894C350.928 58.9666 350.966 58.3269 350.983 57.6957C350.992 57.4011 350.996 57.1149 350.996 56.8203L351 55.7851V8.18044C351 7.88585 350.992 7.59968 350.983 7.30931C350.975 6.67191 350.919 6.03603 350.815 5.40714C350.613 4.13984 350.017 2.96861 349.11 2.06088C348.203 1.15314 347.032 0.555344 345.765 0.352936C345.136 0.249234 344.5 0.192964 343.863 0.184603C343.227 0.166617 342.592 0.162407 341.956 0.171977H259.048ZM259.048 2.32664H342.97C343.248 2.32664 343.522 2.33506 343.8 2.33927C344.284 2.3561 344.852 2.38135 345.378 2.47393C345.836 2.5581 346.219 2.68435 346.585 2.86952C347.324 3.24425 347.924 3.8441 348.298 4.58231C348.491 4.9638 348.624 5.37252 348.694 5.79431C348.786 6.31193 348.812 6.88006 348.824 7.36823C348.833 7.64177 348.837 7.91531 348.837 8.19727V56.8119C348.837 57.0855 348.837 57.359 348.824 57.6368C348.812 58.1207 348.786 58.6888 348.69 59.2149C348.599 59.8341 348.36 60.4224 347.994 60.93C347.627 61.4376 347.144 61.8496 346.585 62.1313C346.206 62.323 345.801 62.4564 345.382 62.5268C344.863 62.6094 344.338 62.6544 343.812 62.6615L342.97 62.6741H258.021C257.743 62.6741 257.461 62.6657 257.196 62.6615C256.668 62.6547 256.14 62.6097 255.618 62.5268C255.159 62.4427 254.776 62.3164 254.406 62.1313C253.668 61.758 253.069 61.1576 252.698 60.4185C252.505 60.0368 252.372 59.6281 252.302 59.2065C252.218 58.6873 252.173 58.1626 252.167 57.6368C252.162 57.3605 252.159 57.0841 252.159 56.8077V8.19306C252.159 7.91952 252.159 7.64177 252.167 7.36402C252.184 6.88427 252.209 6.32035 252.302 5.78589C252.386 5.33139 252.512 4.94843 252.698 4.5781C253.073 3.84111 253.672 3.24267 254.41 2.86952C254.791 2.67903 255.198 2.54574 255.618 2.47393C256.144 2.38135 256.712 2.3519 257.196 2.33927C257.47 2.33085 257.748 2.33085 258.021 2.32664H259.048ZM278.869 17.8975C277.607 17.9648 276.058 18.7349 275.166 19.8165C274.362 20.7423 273.651 22.2573 273.836 23.6797C275.258 23.806 276.677 22.9685 277.573 21.9206C278.436 20.8349 279.025 19.383 278.869 17.9017V17.8975ZM288.157 19.665V42.7813H291.742V34.8823H296.708C301.245 34.8823 304.431 31.7723 304.431 27.2568C304.431 22.7539 301.308 19.6608 296.822 19.6608L288.157 19.665ZM291.742 22.6908H295.875C298.985 22.6908 300.761 24.3573 300.761 27.2736C300.761 30.1858 298.985 31.8691 295.862 31.8691H291.742V22.6908ZM278.469 23.9533C276.576 23.9954 274.976 25.1316 274.051 25.1316C273.062 25.1316 271.555 24.0206 269.922 24.0501C268.86 24.0766 267.823 24.3807 266.915 24.9322C266.007 25.4837 265.259 26.2634 264.746 27.1937C262.528 31.0149 264.161 36.6835 266.32 39.7976C267.368 41.3379 268.63 43.0338 270.293 42.9707C271.862 42.9118 272.481 41.9523 274.387 41.9523C276.298 41.9523 276.853 42.9707 278.511 42.9413C280.237 42.9118 281.318 41.401 282.362 39.8566C283.566 38.1017 284.058 36.4057 284.088 36.3173C284.058 36.2837 280.763 35.0212 280.733 31.2295C280.7 28.0564 283.322 26.5456 283.444 26.453C281.962 24.2647 279.656 24.0206 278.857 23.9575C278.728 23.9494 278.598 23.9508 278.469 23.9533ZM312.995 25.624C308.828 25.624 306.236 27.867 306.042 30.9096H309.312C309.615 29.4031 310.865 28.4436 312.868 28.4436C314.981 28.4436 316.248 29.563 316.248 31.4357V32.7361L311.631 33.0054C307.629 33.2326 305.369 35.0422 305.369 37.9881C305.369 41.0181 307.675 43.0675 310.975 43.0675C313.188 43.0675 315.318 41.885 316.294 40.0081H316.374V42.7813H319.69V31.1663C319.69 27.7871 317.081 25.624 312.995 25.624ZM321.159 25.927L327.244 42.7982C327.244 42.8108 326.937 43.8082 326.937 43.8376C326.411 45.5631 325.548 46.2406 323.945 46.2406C323.654 46.2406 323.078 46.2406 322.821 46.1775V48.9802C323.074 49.0265 323.945 49.0602 324.231 49.0602C327.724 49.0602 329.39 47.7472 330.829 43.6609L337.142 25.927H333.489L329.23 39.6419H329.167L324.904 25.9228L321.159 25.927ZM316.248 35.139V36.4688C316.248 38.6614 314.354 40.3279 311.938 40.3279C310.078 40.3279 308.862 39.3684 308.862 37.8913C308.862 36.452 310.032 35.5346 312.098 35.3957L316.248 35.139Z" fill="#D6D6D6"/>
</g>
<g clip-path="url(#clip3_6372_8694)">
<path d="M659.048 147.172C658.411 147.173 657.774 147.177 657.137 147.185C656.506 147.206 655.862 147.239 655.235 147.353C654.288 147.503 653.389 147.875 652.613 148.44C651.838 149.005 651.208 149.746 650.774 150.602C650.48 151.183 650.295 151.772 650.185 152.411C650.067 153.034 650.029 153.674 650.017 154.305C650.008 154.598 650.003 154.891 650 155.185V203.82C650 204.115 650.008 204.401 650.013 204.691C650.029 205.323 650.067 205.967 650.181 206.594C650.295 207.225 650.484 207.818 650.779 208.399C651.359 209.542 652.287 210.47 653.43 211.05C654.011 211.345 654.6 211.534 655.239 211.648C655.862 211.761 656.502 211.799 657.133 211.816L658.008 211.829H742.992L743.863 211.816C744.494 211.799 745.138 211.761 745.765 211.648C746.396 211.534 746.989 211.349 747.566 211.054C748.711 210.475 749.642 209.544 750.221 208.399C750.516 207.818 750.705 207.229 750.815 206.589C750.928 205.967 750.966 205.327 750.983 204.696C750.992 204.401 750.996 204.115 750.996 203.82L751 202.785V155.18C751 154.886 750.992 154.6 750.983 154.309C750.975 153.672 750.919 153.036 750.815 152.407C750.613 151.14 750.017 149.969 749.11 149.061C748.203 148.153 747.032 147.555 745.765 147.353C745.136 147.249 744.5 147.193 743.863 147.185C743.227 147.167 742.592 147.162 741.956 147.172H659.048ZM659.048 149.327H742.97C743.248 149.327 743.522 149.335 743.8 149.339C744.284 149.356 744.852 149.381 745.378 149.474C745.836 149.558 746.219 149.684 746.585 149.87C747.324 150.244 747.924 150.844 748.298 151.582C748.491 151.964 748.624 152.373 748.694 152.794C748.786 153.312 748.812 153.88 748.824 154.368C748.833 154.642 748.837 154.915 748.837 155.197V203.812C748.837 204.085 748.837 204.359 748.824 204.637C748.812 205.121 748.786 205.689 748.69 206.215C748.599 206.834 748.36 207.422 747.994 207.93C747.627 208.438 747.144 208.85 746.585 209.131C746.206 209.323 745.801 209.456 745.382 209.527C744.863 209.609 744.338 209.654 743.812 209.662L742.97 209.674H658.021C657.743 209.674 657.461 209.666 657.196 209.662C656.668 209.655 656.14 209.61 655.618 209.527C655.159 209.443 654.776 209.316 654.406 209.131C653.668 208.758 653.069 208.158 652.698 207.418C652.505 207.037 652.372 206.628 652.302 206.206C652.218 205.687 652.173 205.163 652.167 204.637C652.162 204.36 652.159 204.084 652.159 203.808V155.193C652.159 154.92 652.159 154.642 652.167 154.364C652.184 153.884 652.209 153.32 652.302 152.786C652.386 152.331 652.512 151.948 652.698 151.578C653.073 150.841 653.672 150.243 654.41 149.87C654.791 149.679 655.198 149.546 655.618 149.474C656.144 149.381 656.712 149.352 657.196 149.339C657.47 149.331 657.748 149.331 658.021 149.327H659.048ZM678.869 164.897C677.607 164.965 676.058 165.735 675.166 166.816C674.362 167.742 673.651 169.257 673.836 170.68C675.258 170.806 676.677 169.969 677.573 168.921C678.436 167.835 679.025 166.383 678.869 164.902V164.897ZM688.157 166.665V189.781H691.742V181.882H696.708C701.245 181.882 704.431 178.772 704.431 174.257C704.431 169.754 701.308 166.661 696.822 166.661L688.157 166.665ZM691.742 169.691H695.875C698.985 169.691 700.761 171.357 700.761 174.274C700.761 177.186 698.985 178.869 695.862 178.869H691.742V169.691ZM678.469 170.953C676.576 170.995 674.976 172.132 674.051 172.132C673.062 172.132 671.555 171.021 669.922 171.05C668.86 171.077 667.823 171.381 666.915 171.932C666.007 172.484 665.259 173.263 664.746 174.194C662.528 178.015 664.161 183.683 666.32 186.798C667.368 188.338 668.63 190.034 670.293 189.971C671.862 189.912 672.481 188.952 674.387 188.952C676.298 188.952 676.853 189.971 678.511 189.941C680.237 189.912 681.318 188.401 682.362 186.857C683.566 185.102 684.058 183.406 684.088 183.317C684.058 183.284 680.763 182.021 680.733 178.229C680.7 175.056 683.322 173.546 683.444 173.453C681.962 171.265 679.656 171.021 678.857 170.957C678.728 170.949 678.598 170.951 678.469 170.953ZM712.995 172.624C708.828 172.624 706.236 174.867 706.042 177.91H709.312C709.615 176.403 710.865 175.444 712.868 175.444C714.981 175.444 716.248 176.563 716.248 178.436V179.736L711.631 180.005C707.629 180.233 705.369 182.042 705.369 184.988C705.369 188.018 707.675 190.068 710.975 190.068C713.188 190.068 715.318 188.885 716.294 187.008H716.374V189.781H719.69V178.166C719.69 174.787 717.081 172.624 712.995 172.624ZM721.159 172.927L727.244 189.798C727.244 189.811 726.937 190.808 726.937 190.838C726.411 192.563 725.548 193.241 723.945 193.241C723.654 193.241 723.078 193.241 722.821 193.177V195.98C723.074 196.027 723.945 196.06 724.231 196.06C727.724 196.06 729.39 194.747 730.829 190.661L737.142 172.927H733.489L729.23 186.642H729.167L724.904 172.923L721.159 172.927ZM716.248 182.139V183.469C716.248 185.661 714.354 187.328 711.938 187.328C710.078 187.328 708.862 186.368 708.862 184.891C708.862 183.452 710.032 182.535 712.098 182.396L716.248 182.139Z" fill="#D6D6D6"/>
</g>
<g clip-path="url(#clip4_6372_8694)">
<path d="M859.048 0.171977C858.411 0.172756 857.774 0.176966 857.137 0.184603C856.506 0.205645 855.862 0.239311 855.235 0.352936C854.288 0.502692 853.389 0.875302 852.613 1.44011C851.838 2.00492 851.208 2.74579 850.774 3.60177C850.48 4.18252 850.295 4.77169 850.185 5.41135C850.067 6.03419 850.029 6.67385 850.017 7.3051C850.008 7.59822 850.003 7.89141 850 8.18464V56.8203C850 57.1149 850.008 57.4011 850.013 57.6915C850.029 58.3227 850.067 58.9666 850.181 59.5936C850.295 60.2249 850.484 60.8183 850.779 61.399C851.359 62.5415 852.287 63.47 853.43 64.0503C854.011 64.3448 854.6 64.5342 855.239 64.6478C855.862 64.7615 856.502 64.7994 857.133 64.8162L858.008 64.8288H942.992L943.863 64.8162C944.494 64.7994 945.138 64.7615 945.765 64.6478C946.396 64.5342 946.989 64.3491 947.566 64.0545C948.711 63.4747 949.642 62.5444 950.221 61.399C950.516 60.8183 950.705 60.2291 950.815 59.5894C950.928 58.9666 950.966 58.3269 950.983 57.6957C950.992 57.4011 950.996 57.1149 950.996 56.8203L951 55.7851V8.18044C951 7.88585 950.992 7.59968 950.983 7.30931C950.975 6.67191 950.919 6.03603 950.815 5.40714C950.613 4.13984 950.017 2.96861 949.11 2.06088C948.203 1.15314 947.032 0.555344 945.765 0.352936C945.136 0.249234 944.5 0.192964 943.863 0.184603C943.227 0.166617 942.592 0.162407 941.956 0.171977H859.048ZM859.048 2.32664H942.97C943.248 2.32664 943.522 2.33506 943.8 2.33927C944.284 2.3561 944.852 2.38135 945.378 2.47393C945.836 2.5581 946.219 2.68435 946.585 2.86952C947.324 3.24425 947.924 3.8441 948.298 4.58231C948.491 4.9638 948.624 5.37252 948.694 5.79431C948.786 6.31193 948.812 6.88006 948.824 7.36823C948.833 7.64177 948.837 7.91531 948.837 8.19727V56.8119C948.837 57.0855 948.837 57.359 948.824 57.6368C948.812 58.1207 948.786 58.6888 948.69 59.2149C948.599 59.8341 948.36 60.4224 947.994 60.93C947.627 61.4376 947.144 61.8496 946.585 62.1313C946.206 62.323 945.801 62.4564 945.382 62.5268C944.863 62.6094 944.338 62.6544 943.812 62.6615L942.97 62.6741H858.021C857.743 62.6741 857.461 62.6657 857.196 62.6615C856.668 62.6547 856.14 62.6097 855.618 62.5268C855.159 62.4427 854.776 62.3164 854.406 62.1313C853.668 61.758 853.069 61.1576 852.698 60.4185C852.505 60.0368 852.372 59.6281 852.302 59.2065C852.218 58.6873 852.173 58.1626 852.167 57.6368C852.162 57.3605 852.159 57.0841 852.159 56.8077V8.19306C852.159 7.91952 852.159 7.64177 852.167 7.36402C852.184 6.88427 852.209 6.32035 852.302 5.78589C852.386 5.33139 852.512 4.94843 852.698 4.5781C853.073 3.84111 853.672 3.24267 854.41 2.86952C854.791 2.67903 855.198 2.54574 855.618 2.47393C856.144 2.38135 856.712 2.3519 857.196 2.33927C857.47 2.33085 857.748 2.33085 858.021 2.32664H859.048ZM878.869 17.8975C877.607 17.9648 876.058 18.7349 875.166 19.8165C874.362 20.7423 873.651 22.2573 873.836 23.6797C875.258 23.806 876.677 22.9685 877.573 21.9206C878.436 20.8349 879.025 19.383 878.869 17.9017V17.8975ZM888.157 19.665V42.7813H891.742V34.8823H896.708C901.245 34.8823 904.431 31.7723 904.431 27.2568C904.431 22.7539 901.308 19.6608 896.822 19.6608L888.157 19.665ZM891.742 22.6908H895.875C898.985 22.6908 900.761 24.3573 900.761 27.2736C900.761 30.1858 898.985 31.8691 895.862 31.8691H891.742V22.6908ZM878.469 23.9533C876.576 23.9954 874.976 25.1316 874.051 25.1316C873.062 25.1316 871.555 24.0206 869.922 24.0501C868.86 24.0766 867.823 24.3807 866.915 24.9322C866.007 25.4837 865.259 26.2634 864.746 27.1937C862.528 31.0149 864.161 36.6835 866.32 39.7976C867.368 41.3379 868.63 43.0338 870.293 42.9707C871.862 42.9118 872.481 41.9523 874.387 41.9523C876.298 41.9523 876.853 42.9707 878.511 42.9413C880.237 42.9118 881.318 41.401 882.362 39.8566C883.566 38.1017 884.058 36.4057 884.088 36.3173C884.058 36.2837 880.763 35.0212 880.733 31.2295C880.7 28.0564 883.322 26.5456 883.444 26.453C881.962 24.2647 879.656 24.0206 878.857 23.9575C878.728 23.9494 878.598 23.9508 878.469 23.9533ZM912.995 25.624C908.828 25.624 906.236 27.867 906.042 30.9096H909.312C909.615 29.4031 910.865 28.4436 912.868 28.4436C914.981 28.4436 916.248 29.563 916.248 31.4357V32.7361L911.631 33.0054C907.629 33.2326 905.369 35.0422 905.369 37.9881C905.369 41.0181 907.675 43.0675 910.975 43.0675C913.188 43.0675 915.318 41.885 916.294 40.0081H916.374V42.7813H919.69V31.1663C919.69 27.7871 917.081 25.624 912.995 25.624ZM921.159 25.927L927.244 42.7982C927.244 42.8108 926.937 43.8082 926.937 43.8376C926.411 45.5631 925.548 46.2406 923.945 46.2406C923.654 46.2406 923.078 46.2406 922.821 46.1775V48.9802C923.074 49.0265 923.945 49.0602 924.231 49.0602C927.724 49.0602 929.39 47.7472 930.829 43.6609L937.142 25.927H933.489L929.23 39.6419H929.167L924.904 25.9228L921.159 25.927ZM916.248 35.139V36.4688C916.248 38.6614 914.354 40.3279 911.938 40.3279C910.078 40.3279 908.862 39.3684 908.862 37.8913C908.862 36.452 910.032 35.5346 912.098 35.3957L916.248 35.139Z" fill="#D6D6D6"/>
</g>
<g clip-path="url(#clip5_6372_8694)">
<path d="M1059.05 147.172C1058.41 147.173 1057.77 147.177 1057.14 147.185C1056.51 147.206 1055.86 147.239 1055.24 147.353C1054.29 147.503 1053.39 147.875 1052.61 148.44C1051.84 149.005 1051.21 149.746 1050.77 150.602C1050.48 151.183 1050.29 151.772 1050.19 152.411C1050.07 153.034 1050.03 153.674 1050.02 154.305C1050.01 154.598 1050 154.891 1050 155.185V203.82C1050 204.115 1050.01 204.401 1050.01 204.691C1050.03 205.323 1050.07 205.967 1050.18 206.594C1050.29 207.225 1050.48 207.818 1050.78 208.399C1051.36 209.542 1052.29 210.47 1053.43 211.05C1054.01 211.345 1054.6 211.534 1055.24 211.648C1055.86 211.761 1056.5 211.799 1057.13 211.816L1058.01 211.829H1142.99L1143.86 211.816C1144.49 211.799 1145.14 211.761 1145.76 211.648C1146.4 211.534 1146.99 211.349 1147.57 211.054C1148.71 210.475 1149.64 209.544 1150.22 208.399C1150.52 207.818 1150.71 207.229 1150.81 206.589C1150.93 205.967 1150.97 205.327 1150.98 204.696C1150.99 204.401 1151 204.115 1151 203.82L1151 202.785V155.18C1151 154.886 1150.99 154.6 1150.98 154.309C1150.98 153.672 1150.92 153.036 1150.81 152.407C1150.61 151.14 1150.02 149.969 1149.11 149.061C1148.2 148.153 1147.03 147.555 1145.76 147.353C1145.14 147.249 1144.5 147.193 1143.86 147.185C1143.23 147.167 1142.59 147.162 1141.96 147.172H1059.05ZM1059.05 149.327H1142.97C1143.25 149.327 1143.52 149.335 1143.8 149.339C1144.28 149.356 1144.85 149.381 1145.38 149.474C1145.84 149.558 1146.22 149.684 1146.59 149.87C1147.32 150.244 1147.92 150.844 1148.3 151.582C1148.49 151.964 1148.62 152.373 1148.69 152.794C1148.79 153.312 1148.81 153.88 1148.82 154.368C1148.83 154.642 1148.84 154.915 1148.84 155.197V203.812C1148.84 204.085 1148.84 204.359 1148.82 204.637C1148.81 205.121 1148.79 205.689 1148.69 206.215C1148.6 206.834 1148.36 207.422 1147.99 207.93C1147.63 208.438 1147.14 208.85 1146.59 209.131C1146.21 209.323 1145.8 209.456 1145.38 209.527C1144.86 209.609 1144.34 209.654 1143.81 209.662L1142.97 209.674H1058.02C1057.74 209.674 1057.46 209.666 1057.2 209.662C1056.67 209.655 1056.14 209.61 1055.62 209.527C1055.16 209.443 1054.78 209.316 1054.41 209.131C1053.67 208.758 1053.07 208.158 1052.7 207.418C1052.51 207.037 1052.37 206.628 1052.3 206.206C1052.22 205.687 1052.17 205.163 1052.17 204.637C1052.16 204.36 1052.16 204.084 1052.16 203.808V155.193C1052.16 154.92 1052.16 154.642 1052.17 154.364C1052.18 153.884 1052.21 153.32 1052.3 152.786C1052.39 152.331 1052.51 151.948 1052.7 151.578C1053.07 150.841 1053.67 150.243 1054.41 149.87C1054.79 149.679 1055.2 149.546 1055.62 149.474C1056.14 149.381 1056.71 149.352 1057.2 149.339C1057.47 149.331 1057.75 149.331 1058.02 149.327H1059.05ZM1078.87 164.897C1077.61 164.965 1076.06 165.735 1075.17 166.816C1074.36 167.742 1073.65 169.257 1073.84 170.68C1075.26 170.806 1076.68 169.969 1077.57 168.921C1078.44 167.835 1079.02 166.383 1078.87 164.902V164.897ZM1088.16 166.665V189.781H1091.74V181.882H1096.71C1101.24 181.882 1104.43 178.772 1104.43 174.257C1104.43 169.754 1101.31 166.661 1096.82 166.661L1088.16 166.665ZM1091.74 169.691H1095.88C1098.99 169.691 1100.76 171.357 1100.76 174.274C1100.76 177.186 1098.99 178.869 1095.86 178.869H1091.74V169.691ZM1078.47 170.953C1076.58 170.995 1074.98 172.132 1074.05 172.132C1073.06 172.132 1071.56 171.021 1069.92 171.05C1068.86 171.077 1067.82 171.381 1066.92 171.932C1066.01 172.484 1065.26 173.263 1064.75 174.194C1062.53 178.015 1064.16 183.683 1066.32 186.798C1067.37 188.338 1068.63 190.034 1070.29 189.971C1071.86 189.912 1072.48 188.952 1074.39 188.952C1076.3 188.952 1076.85 189.971 1078.51 189.941C1080.24 189.912 1081.32 188.401 1082.36 186.857C1083.57 185.102 1084.06 183.406 1084.09 183.317C1084.06 183.284 1080.76 182.021 1080.73 178.229C1080.7 175.056 1083.32 173.546 1083.44 173.453C1081.96 171.265 1079.66 171.021 1078.86 170.957C1078.73 170.949 1078.6 170.951 1078.47 170.953ZM1112.99 172.624C1108.83 172.624 1106.24 174.867 1106.04 177.91H1109.31C1109.62 176.403 1110.87 175.444 1112.87 175.444C1114.98 175.444 1116.25 176.563 1116.25 178.436V179.736L1111.63 180.005C1107.63 180.233 1105.37 182.042 1105.37 184.988C1105.37 188.018 1107.68 190.068 1110.97 190.068C1113.19 190.068 1115.32 188.885 1116.29 187.008H1116.37V189.781H1119.69V178.166C1119.69 174.787 1117.08 172.624 1112.99 172.624ZM1121.16 172.927L1127.24 189.798C1127.24 189.811 1126.94 190.808 1126.94 190.838C1126.41 192.563 1125.55 193.241 1123.94 193.241C1123.65 193.241 1123.08 193.241 1122.82 193.177V195.98C1123.07 196.027 1123.94 196.06 1124.23 196.06C1127.72 196.06 1129.39 194.747 1130.83 190.661L1137.14 172.927H1133.49L1129.23 186.642H1129.17L1124.9 172.923L1121.16 172.927ZM1116.25 182.139V183.469C1116.25 185.661 1114.35 187.328 1111.94 187.328C1110.08 187.328 1108.86 186.368 1108.86 184.891C1108.86 183.452 1110.03 182.535 1112.1 182.396L1116.25 182.139Z" fill="#D6D6D6"/>
</g>
<g clip-path="url(#clip6_6372_8694)">
<path d="M488.587 17.0807L475.626 48.0018H467.17L460.793 23.3219C460.405 21.8039 460.071 21.247 458.891 20.6076C456.969 19.564 453.793 18.5864 451 17.9759L451.19 17.0807H464.802C465.692 17.0799 466.552 17.397 467.229 17.9749C467.905 18.5528 468.352 19.3534 468.49 20.2322L471.86 38.1265L480.184 17.0807H488.587ZM521.723 37.9079C521.756 29.7445 510.437 29.2949 510.516 25.6484C510.54 24.5387 511.596 23.359 513.906 23.0579C516.613 22.8008 519.34 23.2796 521.797 24.4439L523.2 17.8851C520.807 16.9856 518.273 16.5205 515.717 16.5115C507.81 16.5115 502.245 20.719 502.195 26.7374C502.146 31.1882 506.168 33.6674 509.2 35.1524C512.318 36.6662 513.366 37.6398 513.349 38.9928C513.329 41.0718 510.866 41.9834 508.564 42.0205C504.542 42.0824 502.212 40.9356 500.347 40.0694L498.9 46.8426C500.768 47.7006 504.217 48.4514 507.793 48.4844C516.196 48.4844 521.694 44.3346 521.723 37.9079ZM542.6 48.0018H550L543.544 17.0807H536.713C535.983 17.074 535.268 17.2867 534.661 17.6912C534.053 18.0957 533.581 18.6735 533.306 19.3495L521.307 48.0018H529.705L531.376 43.3817H541.639L542.6 48.0018ZM533.677 37.0458L537.885 25.4339L540.31 37.0458H533.677ZM500.017 17.0807L493.405 48.0018H485.403L492.023 17.0807H500.017Z" fill="#D6D6D6"/>
</g>
<g clip-path="url(#clip7_6372_8694)">
<path d="M88.587 164.081L75.6262 195.002H67.17L60.7928 170.322C60.405 168.804 60.0709 168.247 58.8911 167.608C56.9689 166.564 53.7926 165.586 51 164.976L51.1898 164.081H64.8022C65.6918 164.08 66.5524 164.397 67.2286 164.975C67.9049 165.553 68.3522 166.353 68.49 167.232L71.8601 185.127L80.1844 164.081H88.587ZM121.723 184.908C121.756 176.744 110.437 176.295 110.516 172.648C110.54 171.539 111.596 170.359 113.906 170.058C116.613 169.801 119.34 170.28 121.797 171.444L123.2 164.885C120.807 163.986 118.273 163.52 115.717 163.511C107.81 163.511 102.245 167.719 102.195 173.737C102.146 178.188 106.168 180.667 109.2 182.152C112.318 183.666 113.366 184.64 113.349 185.993C113.329 188.072 110.866 188.983 108.564 189.02C104.542 189.082 102.212 187.936 100.347 187.069L98.8995 193.843C100.768 194.701 104.217 195.451 107.793 195.484C116.196 195.484 121.694 191.335 121.723 184.908ZM142.6 195.002H150L143.544 164.081H136.713C135.983 164.074 135.268 164.287 134.661 164.691C134.053 165.096 133.581 165.673 133.306 166.35L121.307 195.002H129.705L131.376 190.382H141.639L142.6 195.002ZM133.677 184.046L137.885 172.434L140.31 184.046H133.677ZM100.017 164.081L93.405 195.002H85.4025L92.0231 164.081H100.017Z" fill="#D6D6D6"/>
</g>
<g clip-path="url(#clip8_6372_8694)">
<path d="M1088.59 17.0807L1075.63 48.0018H1067.17L1060.79 23.3219C1060.41 21.8039 1060.07 21.247 1058.89 20.6076C1056.97 19.564 1053.79 18.5864 1051 17.9759L1051.19 17.0807H1064.8C1065.69 17.0799 1066.55 17.397 1067.23 17.9749C1067.9 18.5528 1068.35 19.3534 1068.49 20.2322L1071.86 38.1265L1080.18 17.0807H1088.59ZM1121.72 37.9079C1121.76 29.7445 1110.44 29.2949 1110.52 25.6484C1110.54 24.5387 1111.6 23.359 1113.91 23.0579C1116.61 22.8008 1119.34 23.2796 1121.8 24.4439L1123.2 17.8851C1120.81 16.9856 1118.27 16.5205 1115.72 16.5115C1107.81 16.5115 1102.24 20.719 1102.2 26.7374C1102.15 31.1882 1106.17 33.6674 1109.2 35.1524C1112.32 36.6662 1113.37 37.6398 1113.35 38.9928C1113.33 41.0718 1110.87 41.9834 1108.56 42.0205C1104.54 42.0824 1102.21 40.9356 1100.35 40.0694L1098.9 46.8426C1100.77 47.7006 1104.22 48.4514 1107.79 48.4844C1116.2 48.4844 1121.69 44.3346 1121.72 37.9079ZM1142.6 48.0018H1150L1143.54 17.0807H1136.71C1135.98 17.074 1135.27 17.2867 1134.66 17.6912C1134.05 18.0957 1133.58 18.6735 1133.31 19.3495L1121.31 48.0018H1129.7L1131.38 43.3817H1141.64L1142.6 48.0018ZM1133.68 37.0458L1137.88 25.4339L1140.31 37.0458H1133.68ZM1100.02 17.0807L1093.4 48.0018H1085.4L1092.02 17.0807H1100.02Z" fill="#D6D6D6"/>
</g>
<g clip-path="url(#clip9_6372_8694)">
<path d="M888.587 164.081L875.626 195.002H867.17L860.793 170.322C860.405 168.804 860.071 168.247 858.891 167.608C856.969 166.564 853.793 165.586 851 164.976L851.19 164.081H864.802C865.692 164.08 866.552 164.397 867.229 164.975C867.905 165.553 868.352 166.353 868.49 167.232L871.86 185.127L880.184 164.081H888.587ZM921.723 184.908C921.756 176.744 910.437 176.295 910.516 172.648C910.54 171.539 911.596 170.359 913.906 170.058C916.613 169.801 919.34 170.28 921.797 171.444L923.2 164.885C920.807 163.986 918.273 163.52 915.717 163.511C907.81 163.511 902.245 167.719 902.195 173.737C902.146 178.188 906.168 180.667 909.2 182.152C912.318 183.666 913.366 184.64 913.349 185.993C913.329 188.072 910.866 188.983 908.564 189.02C904.542 189.082 902.212 187.936 900.347 187.069L898.9 193.843C900.768 194.701 904.217 195.451 907.793 195.484C916.196 195.484 921.694 191.335 921.723 184.908ZM942.6 195.002H950L943.544 164.081H936.713C935.983 164.074 935.268 164.287 934.661 164.691C934.053 165.096 933.581 165.673 933.306 166.35L921.307 195.002H929.705L931.376 190.382H941.639L942.6 195.002ZM933.677 184.046L937.885 172.434L940.31 184.046H933.677ZM900.017 164.081L893.405 195.002H885.403L892.023 164.081H900.017Z" fill="#D6D6D6"/>
</g>
<path d="M767.158 19.9792L763.338 44.1573C763.324 44.2461 763.329 44.3369 763.353 44.4235C763.377 44.5101 763.42 44.5903 763.478 44.6584C763.537 44.7266 763.609 44.7811 763.69 44.8182C763.772 44.8552 763.86 44.8739 763.949 44.8728H768.47C768.63 44.8742 768.784 44.818 768.906 44.7144C769.028 44.6107 769.109 44.4665 769.135 44.3079L772.955 20.1297C772.969 20.041 772.964 19.9501 772.939 19.8635C772.915 19.777 772.873 19.6968 772.814 19.6286C772.756 19.5604 772.684 19.5059 772.602 19.4689C772.521 19.4318 772.433 19.4132 772.343 19.4142H767.823C767.663 19.411 767.507 19.4666 767.385 19.5705C767.262 19.6745 767.182 19.8197 767.158 19.9792ZM762.331 27.0349H758.041C757.882 27.0333 757.727 27.0894 757.606 27.1929C757.484 27.2964 757.403 27.4404 757.378 27.5989L757.236 28.489C757.236 28.489 753.904 24.8499 748.006 27.3092C744.622 28.7173 742.998 31.6265 742.307 33.7578C742.307 33.7578 740.113 40.2352 745.074 43.8005C745.074 43.8005 749.675 47.2296 754.856 43.5895L754.766 44.1573C754.745 44.2907 754.769 44.4272 754.832 44.5461C754.896 44.6649 754.996 44.7595 755.118 44.8153C755.199 44.8537 755.288 44.8728 755.377 44.8728H759.67C759.829 44.876 759.985 44.8205 760.107 44.7165C760.23 44.6125 760.31 44.4673 760.334 44.3079L762.945 27.7505C762.959 27.6618 762.954 27.5709 762.93 27.4845C762.905 27.3981 762.862 27.3182 762.803 27.2507C762.745 27.182 762.672 27.1269 762.591 27.0894C762.509 27.052 762.42 27.034 762.331 27.0349ZM756.019 36.1855C755.852 37.3424 755.271 38.3979 754.386 39.1542C753.497 39.9132 752.366 40.323 751.201 40.3081C750.744 40.3134 750.29 40.2468 749.853 40.1105C748.001 39.5158 746.944 37.7375 747.248 35.8095C747.417 34.6532 747.998 33.5985 748.883 32.8428C749.771 32.0833 750.901 31.6722 752.066 31.685C752.523 31.6803 752.978 31.7476 753.414 31.8845C755.277 32.4754 756.329 34.2566 756.024 36.1865H756.019V36.1855ZM733.115 36.643C735.441 36.643 737.691 35.8105 739.458 34.2969C741.221 32.7884 742.389 30.6925 742.748 28.3902C743.5 23.601 739.759 19.4209 734.455 19.4209H725.912C725.752 19.4194 725.598 19.4756 725.476 19.5792C725.354 19.6829 725.273 19.8272 725.248 19.9859L721.427 44.164C721.407 44.2974 721.43 44.434 721.493 44.5528C721.557 44.6716 721.658 44.7662 721.78 44.822C721.861 44.8604 721.949 44.8796 722.039 44.8796H726.562C726.722 44.8811 726.876 44.8249 726.998 44.7212C727.12 44.6175 727.201 44.4732 727.226 44.3146L728.347 37.2147C728.371 37.0551 728.451 36.9097 728.574 36.8055C728.696 36.7014 728.852 36.6456 729.012 36.6488L733.115 36.643ZM736.898 28.1725C736.619 29.9432 735.25 31.2467 732.631 31.2467H729.282L730.299 24.8077H733.588C736.296 24.8125 737.177 26.4095 736.898 28.1773V28.1725Z" fill="#D6D6D6"/>
<path d="M716.273 27.4455L711.1 36.1788L708.474 27.5097C708.433 27.3714 708.348 27.2503 708.232 27.1646C708.117 27.079 707.977 27.0335 707.834 27.0349H703.165C703.044 27.0333 702.926 27.0757 702.834 27.1543C702.742 27.2329 702.681 27.3425 702.663 27.4627C702.651 27.5425 702.66 27.6238 702.687 27.6997L707.392 42.3023L703.136 49.1835C703.1 49.2401 703.076 49.3036 703.065 49.37C703.054 49.4364 703.056 49.5044 703.072 49.5698C703.088 49.6352 703.118 49.6965 703.158 49.7502C703.198 49.8038 703.249 49.8486 703.307 49.8817C703.385 49.9268 703.474 49.95 703.564 49.9489H708.593C708.736 49.9494 708.877 49.9126 709.003 49.842C709.128 49.7714 709.233 49.6695 709.308 49.546L722.451 27.8042C722.498 27.7285 722.525 27.6411 722.526 27.5515C722.528 27.4619 722.506 27.3735 722.461 27.2958C722.417 27.218 722.353 27.1535 722.275 27.1091C722.198 27.0647 722.11 27.0421 722.02 27.0436H716.993C716.849 27.0422 716.707 27.0786 716.581 27.149C716.455 27.2194 716.349 27.3216 716.273 27.4455ZM700.518 27.0349H696.225C696.065 27.0334 695.91 27.0897 695.788 27.1936C695.666 27.2974 695.585 27.442 695.56 27.6009L695.421 28.49C695.421 28.49 692.087 24.8509 686.188 27.3102C682.805 28.7183 681.18 31.6275 680.492 33.7588C680.492 33.7588 678.296 40.2362 683.257 43.8015C683.257 43.8015 687.858 47.2306 693.039 43.5905L692.949 44.1583C692.928 44.2917 692.951 44.4284 693.015 44.5473C693.079 44.6662 693.179 44.7607 693.301 44.8163C693.382 44.8547 693.471 44.8738 693.56 44.8738H697.853C698.012 44.875 698.166 44.8187 698.288 44.715C698.41 44.6114 698.491 44.4674 698.516 44.3089L701.128 27.7515C701.149 27.6179 701.126 27.481 701.063 27.3619C700.999 27.2428 700.898 27.1481 700.776 27.0925C700.694 27.0548 700.607 27.0352 700.518 27.0349ZM694.205 36.1875C694.036 37.3429 693.455 38.3968 692.571 39.1523C691.683 39.9112 690.553 40.322 689.388 40.3091C688.932 40.3142 688.478 40.2475 688.042 40.1115C686.191 39.5168 685.135 37.7385 685.439 35.8096C685.608 34.6508 686.191 33.5941 687.079 32.838C687.971 32.0786 689.105 31.6695 690.272 31.686C690.729 31.6812 691.185 31.7484 691.621 31.8855C693.465 32.4764 694.515 34.2566 694.211 36.1875H694.205ZM671.302 36.644C673.624 36.6428 675.87 35.8103 677.639 34.295C679.401 32.7866 680.567 30.6914 680.926 28.3903C681.678 23.602 677.936 19.4219 672.635 19.4219H664.09C663.931 19.4203 663.776 19.4763 663.654 19.5798C663.532 19.6833 663.451 19.8274 663.426 19.9859L659.617 44.1573C659.596 44.2909 659.619 44.4278 659.682 44.5469C659.746 44.666 659.847 44.7607 659.969 44.8163C660.05 44.8537 660.139 44.8738 660.228 44.8738H664.749C664.909 44.8754 665.064 44.8191 665.186 44.7152C665.308 44.6114 665.389 44.4668 665.414 44.3079L666.533 37.2081C666.557 37.0486 666.638 36.9034 666.76 36.7994C666.882 36.6955 667.038 36.6399 667.198 36.6431L671.302 36.644ZM675.085 28.1725C674.806 29.9432 673.438 31.2467 670.819 31.2467H667.47L668.485 24.8077H671.774C674.483 24.8125 675.363 26.4105 675.085 28.1773V28.1725Z" fill="#D6D6D6"/>
<path d="M642.076 20.664C642.178 15.3252 637.807 11.2295 631.796 11.2295H619.363C619.073 11.2294 618.793 11.3334 618.573 11.523C618.353 11.7126 618.207 11.9752 618.162 12.2635L613.18 43.6221C613.158 43.7642 613.166 43.9095 613.205 44.0479C613.244 44.1864 613.312 44.3147 613.405 44.4241C613.498 44.5335 613.613 44.6214 613.742 44.6816C613.872 44.7418 614.013 44.7731 614.156 44.7731H621.522L620.371 52.0341C620.348 52.1762 620.357 52.3215 620.396 52.46C620.434 52.5984 620.503 52.7268 620.595 52.8362C620.688 52.9456 620.803 53.0334 620.933 53.0936C621.063 53.1539 621.204 53.1851 621.346 53.1851H627.347C627.636 53.1851 627.894 53.0806 628.115 52.8916C628.334 52.7017 628.37 52.4399 628.416 52.1511L630.177 41.7114C630.222 41.4236 630.368 41.0496 630.588 40.8596C630.808 40.6697 631 40.5661 631.29 40.5661H634.962C640.849 40.5661 645.843 36.3505 646.756 30.488C647.402 26.327 645.631 22.5411 642.076 20.664Z" fill="#A5A5A5"/>
<path d="M623.116 33.2083L621.281 44.9276L620.129 52.2787C620.107 52.4209 620.116 52.5661 620.155 52.7045C620.194 52.8429 620.262 52.9712 620.355 53.0805C620.447 53.1898 620.563 53.2775 620.692 53.3377C620.822 53.3978 620.963 53.4289 621.106 53.4288H627.457C627.746 53.4287 628.026 53.3244 628.246 53.1349C628.466 52.9453 628.611 52.6829 628.656 52.3948L630.33 41.7105C630.375 41.4223 630.521 41.1598 630.741 40.9703C630.961 40.7807 631.241 40.6765 631.531 40.6765H635.269C641.156 40.6765 646.15 36.3505 647.064 30.488C647.711 26.3271 645.632 22.5402 642.077 20.6631C642.067 21.1062 642.029 21.5484 641.961 21.9868C641.048 27.8474 636.053 32.1742 630.167 32.1742H624.317C624.027 32.1746 623.747 32.279 623.527 32.4687C623.307 32.6584 623.161 32.92 623.116 33.2083Z" fill="#D6D6D6"/>
<path d="M621.28 44.9268H613.892C613.749 44.9268 613.608 44.8956 613.478 44.8353C613.348 44.7751 613.233 44.6872 613.141 44.5778C613.048 44.4684 612.98 44.34 612.941 44.2015C612.903 44.0631 612.894 43.9178 612.917 43.7758L617.898 11.952C617.943 11.6638 618.089 11.4014 618.309 11.2118C618.529 11.0223 618.809 10.9181 619.099 10.918H631.796C637.807 10.918 642.178 15.3245 642.076 20.6623C640.581 19.8719 638.823 19.4202 636.898 19.4202H626.312C626.022 19.42 625.742 19.5241 625.522 19.7137C625.301 19.9033 625.156 20.1659 625.11 20.4542L623.117 33.2075L621.279 44.9268H621.28Z" fill="#D6D6D6"/>
<path d="M367.158 166.979L363.338 191.157C363.324 191.246 363.329 191.337 363.353 191.424C363.377 191.51 363.42 191.59 363.478 191.658C363.537 191.727 363.609 191.781 363.69 191.818C363.772 191.855 363.86 191.874 363.949 191.873H368.47C368.63 191.874 368.784 191.818 368.906 191.714C369.028 191.611 369.109 191.467 369.135 191.308L372.955 167.13C372.969 167.041 372.964 166.95 372.939 166.864C372.915 166.777 372.873 166.697 372.814 166.629C372.756 166.56 372.684 166.506 372.602 166.469C372.521 166.432 372.433 166.413 372.343 166.414H367.823C367.663 166.411 367.507 166.467 367.385 166.571C367.262 166.674 367.182 166.82 367.158 166.979ZM362.331 174.035H358.041C357.882 174.033 357.727 174.089 357.606 174.193C357.484 174.296 357.403 174.44 357.378 174.599L357.236 175.489C357.236 175.489 353.904 171.85 348.006 174.309C344.622 175.717 342.998 178.627 342.307 180.758C342.307 180.758 340.113 187.235 345.074 190.8C345.074 190.8 349.675 194.23 354.856 190.589L354.766 191.157C354.745 191.291 354.769 191.427 354.832 191.546C354.896 191.665 354.996 191.759 355.118 191.815C355.199 191.854 355.288 191.873 355.377 191.873H359.67C359.829 191.876 359.985 191.82 360.107 191.716C360.23 191.613 360.31 191.467 360.334 191.308L362.945 174.75C362.959 174.662 362.954 174.571 362.93 174.484C362.905 174.398 362.862 174.318 362.803 174.251C362.745 174.182 362.672 174.127 362.591 174.089C362.509 174.052 362.42 174.034 362.331 174.035ZM356.019 183.186C355.852 184.342 355.271 185.398 354.386 186.154C353.497 186.913 352.366 187.323 351.201 187.308C350.744 187.313 350.29 187.247 349.853 187.11C348.001 186.516 346.944 184.737 347.248 182.81C347.417 181.653 347.998 180.599 348.883 179.843C349.771 179.083 350.901 178.672 352.066 178.685C352.523 178.68 352.978 178.748 353.414 178.885C355.277 179.475 356.329 181.257 356.024 183.186H356.019V183.186ZM333.115 183.643C335.441 183.643 337.691 182.81 339.458 181.297C341.221 179.788 342.389 177.693 342.748 175.39C343.5 170.601 339.759 166.421 334.455 166.421H325.912C325.752 166.419 325.598 166.476 325.476 166.579C325.354 166.683 325.273 166.827 325.248 166.986L321.427 191.164C321.407 191.297 321.43 191.434 321.493 191.553C321.557 191.672 321.658 191.766 321.78 191.822C321.861 191.86 321.949 191.88 322.039 191.88H326.562C326.722 191.881 326.876 191.825 326.998 191.721C327.12 191.618 327.201 191.473 327.226 191.315L328.347 184.215C328.371 184.055 328.451 183.91 328.574 183.806C328.696 183.701 328.852 183.646 329.012 183.649L333.115 183.643ZM336.898 175.172C336.619 176.943 335.25 178.247 332.631 178.247H329.282L330.299 171.808H333.588C336.296 171.812 337.177 173.41 336.898 175.177V175.172Z" fill="#D6D6D6"/>
<path d="M316.273 174.445L311.1 183.179L308.474 174.51C308.433 174.371 308.348 174.25 308.232 174.165C308.117 174.079 307.977 174.033 307.834 174.035H303.165C303.044 174.033 302.926 174.076 302.834 174.154C302.742 174.233 302.681 174.342 302.663 174.463C302.651 174.542 302.66 174.624 302.687 174.7L307.392 189.302L303.136 196.183C303.1 196.24 303.076 196.304 303.065 196.37C303.054 196.436 303.056 196.504 303.072 196.57C303.088 196.635 303.118 196.697 303.158 196.75C303.198 196.804 303.249 196.849 303.307 196.882C303.385 196.927 303.474 196.95 303.564 196.949H308.593C308.736 196.949 308.877 196.913 309.003 196.842C309.128 196.771 309.233 196.669 309.308 196.546L322.451 174.804C322.498 174.729 322.525 174.641 322.526 174.552C322.528 174.462 322.506 174.373 322.461 174.296C322.417 174.218 322.353 174.153 322.275 174.109C322.198 174.065 322.11 174.042 322.02 174.044H316.993C316.849 174.042 316.707 174.079 316.581 174.149C316.455 174.219 316.349 174.322 316.273 174.445ZM300.518 174.035H296.225C296.065 174.033 295.91 174.09 295.788 174.194C295.666 174.297 295.585 174.442 295.56 174.601L295.421 175.49C295.421 175.49 292.087 171.851 286.188 174.31C282.805 175.718 281.18 178.628 280.492 180.759C280.492 180.759 278.296 187.236 283.257 190.801C283.257 190.801 287.858 194.231 293.039 190.59L292.949 191.158C292.928 191.292 292.951 191.428 293.015 191.547C293.079 191.666 293.179 191.761 293.301 191.816C293.382 191.855 293.471 191.874 293.56 191.874H297.853C298.012 191.875 298.166 191.819 298.288 191.715C298.41 191.611 298.491 191.467 298.516 191.309L301.128 174.751C301.149 174.618 301.126 174.481 301.063 174.362C300.999 174.243 300.898 174.148 300.776 174.093C300.694 174.055 300.607 174.035 300.518 174.035ZM294.205 183.187C294.036 184.343 293.455 185.397 292.571 186.152C291.683 186.911 290.553 187.322 289.388 187.309C288.932 187.314 288.478 187.248 288.042 187.112C286.191 186.517 285.135 184.738 285.439 182.81C285.608 181.651 286.191 180.594 287.079 179.838C287.971 179.079 289.105 178.669 290.272 178.686C290.729 178.681 291.185 178.748 291.621 178.886C293.465 179.476 294.515 181.257 294.211 183.187H294.205ZM271.302 183.644C273.624 183.643 275.87 182.81 277.639 181.295C279.401 179.787 280.567 177.691 280.926 175.39C281.678 170.602 277.936 166.422 272.635 166.422H264.09C263.931 166.42 263.776 166.476 263.654 166.58C263.532 166.683 263.451 166.827 263.426 166.986L259.617 191.157C259.596 191.291 259.619 191.428 259.682 191.547C259.746 191.666 259.847 191.761 259.969 191.816C260.05 191.854 260.139 191.874 260.228 191.874H264.749C264.909 191.875 265.064 191.819 265.186 191.715C265.308 191.611 265.389 191.467 265.414 191.308L266.533 184.208C266.557 184.049 266.638 183.903 266.76 183.799C266.882 183.695 267.038 183.64 267.198 183.643L271.302 183.644ZM275.085 175.173C274.806 176.943 273.438 178.247 270.819 178.247H267.47L268.485 171.808H271.774C274.483 171.813 275.363 173.411 275.085 175.177V175.173Z" fill="#D6D6D6"/>
<path d="M242.076 167.664C242.178 162.325 237.807 158.229 231.796 158.229H219.363C219.073 158.229 218.793 158.333 218.573 158.523C218.353 158.713 218.207 158.975 218.162 159.263L213.18 190.622C213.158 190.764 213.166 190.909 213.205 191.048C213.244 191.186 213.312 191.315 213.405 191.424C213.498 191.534 213.613 191.621 213.742 191.682C213.872 191.742 214.013 191.773 214.156 191.773H221.522L220.371 199.034C220.348 199.176 220.357 199.322 220.396 199.46C220.434 199.598 220.503 199.727 220.595 199.836C220.688 199.946 220.803 200.033 220.933 200.094C221.063 200.154 221.204 200.185 221.346 200.185H227.347C227.636 200.185 227.894 200.081 228.115 199.892C228.334 199.702 228.37 199.44 228.416 199.151L230.177 188.711C230.222 188.424 230.368 188.05 230.588 187.86C230.808 187.67 231 187.566 231.29 187.566H234.962C240.849 187.566 245.843 183.351 246.756 177.488C247.402 173.327 245.631 169.541 242.076 167.664Z" fill="#A5A5A5"/>
<path d="M223.116 180.208L221.281 191.928L220.129 199.279C220.107 199.421 220.116 199.566 220.155 199.705C220.194 199.843 220.262 199.971 220.355 200.08C220.447 200.19 220.563 200.278 220.692 200.338C220.822 200.398 220.963 200.429 221.106 200.429H227.457C227.746 200.429 228.026 200.324 228.246 200.135C228.466 199.945 228.611 199.683 228.656 199.395L230.33 188.71C230.375 188.422 230.521 188.16 230.741 187.97C230.961 187.781 231.241 187.677 231.531 187.676H235.269C241.156 187.676 246.15 183.351 247.064 177.488C247.711 173.327 245.632 169.54 242.077 167.663C242.067 168.106 242.029 168.548 241.961 168.987C241.048 174.847 236.053 179.174 230.167 179.174H224.317C224.027 179.175 223.747 179.279 223.527 179.469C223.307 179.658 223.161 179.92 223.116 180.208Z" fill="#D6D6D6"/>
<path d="M221.28 191.927H213.892C213.749 191.927 213.608 191.896 213.478 191.835C213.348 191.775 213.233 191.687 213.141 191.578C213.048 191.468 212.98 191.34 212.941 191.202C212.903 191.063 212.894 190.918 212.917 190.776L217.898 158.952C217.943 158.664 218.089 158.401 218.309 158.212C218.529 158.022 218.809 157.918 219.099 157.918H231.796C237.807 157.918 242.178 162.324 242.076 167.662C240.581 166.872 238.823 166.42 236.898 166.42H226.312C226.022 166.42 225.742 166.524 225.522 166.714C225.301 166.903 225.156 167.166 225.11 167.454L223.117 180.207L221.279 191.927H221.28Z" fill="#D6D6D6"/>
<defs>
<clipPath id="clip0_6372_8694">
<rect width="126" height="45" fill="white" transform="translate(37 10)"/>
</clipPath>
<clipPath id="clip1_6372_8694">
<rect width="126" height="45" fill="white" transform="translate(437 157)"/>
</clipPath>
<clipPath id="clip2_6372_8694">
<rect width="200" height="65" fill="white" transform="translate(200)"/>
</clipPath>
<clipPath id="clip3_6372_8694">
<rect width="200" height="65" fill="white" transform="translate(600 147)"/>
</clipPath>
<clipPath id="clip4_6372_8694">
<rect width="200" height="65" fill="white" transform="translate(800)"/>
</clipPath>
<clipPath id="clip5_6372_8694">
<rect width="200" height="65" fill="white" transform="translate(1000 147)"/>
</clipPath>
<clipPath id="clip6_6372_8694">
<rect width="200" height="65" fill="white" transform="translate(400)"/>
</clipPath>
<clipPath id="clip7_6372_8694">
<rect width="200" height="65" fill="white" transform="translate(0 147)"/>
</clipPath>
<clipPath id="clip8_6372_8694">
<rect width="200" height="65" fill="white" transform="translate(1000)"/>
</clipPath>
<clipPath id="clip9_6372_8694">
<rect width="200" height="65" fill="white" transform="translate(800 147)"/>
</clipPath>
</defs>
</svg>
