<svg width="759" height="315" viewBox="0 0 759 315" fill="none" xmlns="http://www.w3.org/2000/svg">
<rect width="759" height="315" fill="url(#paint0_radial_6082_6989)"/>
<g opacity="0.15">
<path d="M332.651 34.3738C332.651 41.1693 329.509 59.9329 325.658 59.9329C321.806 59.9329 318.664 41.1693 318.664 34.3738C318.664 27.5784 321.806 22 325.658 22C329.509 22 332.651 27.5784 332.651 34.3738Z" fill="#727171"/>
<path d="M307.507 37.3155C310.953 43.1981 317.541 61.0489 314.196 62.976C310.852 64.9031 298.79 50.2979 295.344 44.4152C291.898 38.5326 291.898 32.1428 295.344 30.2157C298.689 28.2887 304.162 31.5343 307.608 37.4169L307.507 37.3155Z" fill="#727171"/>
<path d="M287.254 52.0219C293.132 55.4703 307.829 67.5399 305.802 70.8869C303.876 74.2339 286.139 67.6413 280.159 64.1929C274.179 60.7444 271.037 55.2674 272.963 51.9204C274.888 48.5734 281.274 48.5734 287.152 51.9204L287.254 52.0219Z" fill="#727171"/>
<path d="M277.006 75.0454C283.797 75.0454 302.547 78.1896 302.547 82.0437C302.547 85.8979 283.797 89.042 277.006 89.042C270.215 89.042 264.641 85.8979 264.641 82.0437C264.641 78.1896 270.215 75.0454 277.006 75.0454Z" fill="#727171"/>
<path d="M279.532 99.9962C285.411 96.5477 303.25 89.9551 305.175 93.3021C307.101 96.6491 292.506 108.719 286.627 112.167C280.749 115.616 274.363 115.616 272.438 112.167C270.512 108.82 273.755 103.343 279.634 99.8947L279.532 99.9962Z" fill="#727171"/>
<path d="M294.329 120.383C297.775 114.5 309.836 99.7934 313.181 101.822C316.525 103.749 309.937 121.498 306.491 127.482C303.045 133.466 297.572 136.611 294.227 134.684C290.883 132.756 290.883 126.367 294.227 120.484L294.329 120.383Z" fill="#727171"/>
<path d="M317.238 130.626C317.238 123.831 320.38 105.067 324.232 105.067C328.083 105.067 331.225 123.831 331.225 130.626C331.225 137.422 328.083 143 324.232 143C320.38 143 317.238 137.422 317.238 130.626Z" fill="#727171"/>
<path d="M342.181 127.989C338.735 122.106 332.147 104.256 335.492 102.329C338.837 100.402 350.898 115.007 354.344 120.889C357.79 126.772 357.79 133.162 354.344 135.089C350.999 137.016 345.526 133.77 342.08 127.888L342.181 127.989Z" fill="#727171"/>
<path d="M362.547 113.282C356.668 109.834 341.972 97.7644 343.999 94.4174C345.925 91.0703 363.662 97.663 369.642 101.111C375.622 104.56 378.764 110.037 376.838 113.384C374.912 116.731 368.527 116.731 362.648 113.384L362.547 113.282Z" fill="#727171"/>
<path d="M372.786 90.3604C365.995 90.3604 347.244 87.2163 347.244 83.3621C347.244 79.508 365.995 76.3638 372.786 76.3638C379.576 76.3638 385.151 79.508 385.151 83.3621C385.151 87.2163 379.576 90.3604 372.786 90.3604Z" fill="#727171"/>
<path d="M370.154 65.3086C364.275 68.757 346.436 75.3496 344.511 72.0026C342.585 68.6556 357.18 56.5861 363.059 53.1376C368.937 49.6892 375.323 49.6892 377.248 53.1376C379.174 56.4846 375.931 61.9616 370.052 65.41L370.154 65.3086Z" fill="#727171"/>
<path d="M355.457 45.0235C352.011 50.9061 339.95 65.6128 336.605 63.5843C333.26 61.6572 339.849 43.9078 343.295 37.9237C346.741 32.0411 352.214 28.7955 355.559 30.7226C358.903 32.6497 358.903 39.0394 355.559 44.9221L355.457 45.0235Z" fill="#727171"/>
</g>
<g opacity="0.15">
<path d="M617.611 12.3198C626.173 12.3198 649.815 16.2841 649.815 21.1436C649.815 26.003 626.173 29.9673 617.611 29.9673C609.049 29.9673 602.021 26.003 602.021 21.1436C602.021 16.2841 609.049 12.3198 617.611 12.3198Z" fill="#727171"/>
<path d="M620.797 43.7784C628.209 39.4305 650.7 31.1183 653.128 35.3383C655.556 39.5584 637.154 54.7762 629.742 59.1241C622.33 63.4721 614.279 63.4721 611.851 59.1241C609.423 54.9041 613.512 47.9985 620.924 43.6505L620.797 43.7784Z" fill="#727171"/>
<path d="M639.453 69.4827C643.798 62.0656 659.005 43.523 663.222 46.0806C667.439 48.5103 659.133 70.8894 654.788 78.4344C650.443 85.9793 643.542 89.9436 639.325 87.5139C635.108 85.0842 635.108 77.0277 639.325 69.6106L639.453 69.4827Z" fill="#727171"/>
<path d="M668.338 82.3983C668.338 73.8303 672.299 50.1724 677.156 50.1724C682.012 50.1724 685.973 73.8303 685.973 82.3983C685.973 90.9663 682.012 97.9997 677.156 97.9997C672.299 97.9997 668.338 90.9663 668.338 82.3983Z" fill="#727171"/>
<path d="M699.787 79.0735C695.442 71.6564 687.135 49.1494 691.352 46.7197C695.569 44.2899 710.777 62.7048 715.122 70.1219C719.467 77.5389 719.467 85.5954 715.122 88.0251C710.904 90.4549 704.004 86.3627 699.659 78.9456L699.787 79.0735Z" fill="#727171"/>
<path d="M725.467 60.5304C718.055 56.1824 699.525 40.9646 702.081 36.7446C704.509 32.5245 726.873 40.8368 734.412 45.1847C741.952 49.5326 745.914 56.4382 743.486 60.6583C741.058 64.8783 733.007 64.8783 725.595 60.6583L725.467 60.5304Z" fill="#727171"/>
<path d="M738.375 31.63C729.813 31.63 706.171 27.6657 706.171 22.8062C706.171 17.9468 729.813 13.9824 738.375 13.9824C746.937 13.9824 753.965 17.9468 753.965 22.8062C753.965 27.6657 746.937 31.63 738.375 31.63Z" fill="#727171"/>
</g>
<g opacity="0.15">
<path d="M18.9363 149.214C18.9363 156.47 15.581 176.507 11.4681 176.507C7.3552 176.507 4 156.47 4 149.214C4 141.957 7.3552 136 11.4681 136C15.581 136 18.9363 141.957 18.9363 149.214Z" fill="#727171"/>
<path d="M61.7974 209C54.5457 209 34.5225 205.643 34.5225 201.527C34.5225 197.411 54.5457 194.054 61.7974 194.054C69.0491 194.054 75.002 197.411 75.002 201.527C75.002 205.643 69.0491 209 61.7974 209Z" fill="#727171"/>
<path d="M58.9858 182.248C52.7082 185.93 33.659 192.97 31.6025 189.396C29.5461 185.822 45.1318 172.933 51.4094 169.251C57.687 165.568 64.5057 165.568 66.5622 169.251C68.6186 172.825 65.1551 178.673 58.8776 182.356L58.9858 182.248Z" fill="#727171"/>
<path d="M43.2934 160.586C39.6134 166.868 26.7335 182.573 23.1618 180.407C19.5901 178.349 26.6254 159.395 30.3053 153.004C33.9853 146.723 39.8299 143.257 43.4016 145.315C46.9734 147.372 46.9734 154.196 43.4016 160.478L43.2934 160.586Z" fill="#727171"/>
</g>
<path d="M265.932 71.0244H272.779V105.395H265.932V71.0244Z" fill="white"/>
<path d="M321.119 71.0243H328.015V99.4153C327.966 102.697 325.281 105.395 321.99 105.395C320.659 105.395 319.353 104.909 318.361 104.107L286.882 78.8513V105.371H280.035V76.9796C280.035 73.6495 282.721 71 286.06 71C287.391 71 288.649 71.4375 289.689 72.2883L321.119 97.5436V71.0243Z" fill="white"/>
<path d="M258.671 81.3306V84.758C258.671 90.4459 254.025 95.0643 248.412 95.0643H217.611V105.371H210.764V71H248.412C254.025 71 258.671 75.6184 258.671 81.3063V81.3306ZM251.823 81.3306C251.823 79.459 250.251 77.9033 248.412 77.9033H217.611V88.2096H248.412C250.275 88.2096 251.823 86.6782 251.823 84.7823V81.3549V81.3306Z" fill="white"/>
<path d="M185.916 71.0244H192.763V105.395H185.916V71.0244Z" fill="white"/>
<path d="M105.195 71.0244H112.043V105.395H105.195V71.0244Z" fill="white"/>
<path d="M99.6572 105.395H88.2127L69.4854 91.2966L57.7989 99.5368V105.371H51V71H57.7989V91.1265L86.398 71H98.2781L75.3407 87.1644L99.633 105.395H99.6572Z" fill="white"/>
<path d="M165.903 105.395C163.605 105.395 161.597 104.058 160.677 102.162L148.991 78.6811L137.304 102.162C136.385 104.034 134.377 105.346 132.078 105.346C129.344 105.346 126.997 103.426 126.416 100.874L119.424 71H126.465L132.489 96.5956L143.498 74.4516C144.539 72.3855 146.62 71.0243 149.015 71.0243C151.41 71.0243 153.515 72.4584 154.532 74.4516L165.589 96.5956L171.614 71H178.606L171.614 100.922C170.984 103.475 168.686 105.395 165.952 105.395H165.903Z" fill="white"/>
<path d="M51.5114 33.4545H53.5284L57.5625 40.2443H57.733L61.767 33.4545H63.7841L58.5284 42.0057V48H56.767V42.0057L51.5114 33.4545ZM68.7237 48.2273C67.7389 48.2273 66.8748 47.9929 66.1314 47.5241C65.3928 47.0554 64.8151 46.3996 64.3984 45.5568C63.9865 44.714 63.7805 43.7292 63.7805 42.6023C63.7805 41.4659 63.9865 40.474 64.3984 39.6264C64.8151 38.7789 65.3928 38.1207 66.1314 37.652C66.8748 37.1832 67.7389 36.9489 68.7237 36.9489C69.7086 36.9489 70.5703 37.1832 71.3089 37.652C72.0523 38.1207 72.63 38.7789 73.0419 39.6264C73.4586 40.474 73.6669 41.4659 73.6669 42.6023C73.6669 43.7292 73.4586 44.714 73.0419 45.5568C72.63 46.3996 72.0523 47.0554 71.3089 47.5241C70.5703 47.9929 69.7086 48.2273 68.7237 48.2273ZM68.7237 46.7216C69.4718 46.7216 70.0874 46.5298 70.5703 46.1463C71.0533 45.7628 71.4107 45.2585 71.6428 44.6335C71.8748 44.0085 71.9908 43.3314 71.9908 42.6023C71.9908 41.8731 71.8748 41.1937 71.6428 40.5639C71.4107 39.9342 71.0533 39.4252 70.5703 39.0369C70.0874 38.6487 69.4718 38.4545 68.7237 38.4545C67.9756 38.4545 67.3601 38.6487 66.8771 39.0369C66.3942 39.4252 66.0367 39.9342 65.8047 40.5639C65.5727 41.1937 65.4567 41.8731 65.4567 42.6023C65.4567 43.3314 65.5727 44.0085 65.8047 44.6335C66.0367 45.2585 66.3942 45.7628 66.8771 46.1463C67.3601 46.5298 67.9756 46.7216 68.7237 46.7216ZM83.1005 43.5398V37.0909H84.7766V48H83.1005V46.1534H82.9869C82.7312 46.7074 82.3335 47.1785 81.7937 47.5668C81.2539 47.9503 80.5721 48.142 79.7482 48.142C79.0664 48.142 78.4603 47.9929 77.93 47.6946C77.3997 47.3916 76.9831 46.937 76.68 46.331C76.377 45.7202 76.2255 44.9508 76.2255 44.0227V37.0909H77.9016V43.9091C77.9016 44.7045 78.1242 45.339 78.5692 45.8125C79.0191 46.286 79.592 46.5227 80.288 46.5227C80.7047 46.5227 81.1284 46.4162 81.5593 46.2031C81.9949 45.9901 82.3595 45.6634 82.6531 45.223C82.9513 44.7827 83.1005 44.2216 83.1005 43.5398ZM87.8466 48V37.0909H89.4659V38.7386H89.5795C89.7784 38.1989 90.1383 37.7609 90.6591 37.4247C91.1799 37.0885 91.767 36.9205 92.4205 36.9205C92.5436 36.9205 92.6974 36.9228 92.8821 36.9276C93.0668 36.9323 93.2064 36.9394 93.3011 36.9489V38.6534C93.2443 38.6392 93.1141 38.6179 92.9105 38.5895C92.7116 38.5563 92.5009 38.5398 92.2784 38.5398C91.7481 38.5398 91.2746 38.651 90.858 38.8736C90.446 39.0914 90.1193 39.3944 89.8778 39.7827C89.6411 40.1662 89.5227 40.6042 89.5227 41.0966V48H87.8466ZM103.782 48L99.805 33.4545H101.595L104.635 45.3011H104.777L107.873 33.4545H109.862L112.958 45.3011H113.1L116.14 33.4545H117.93L113.953 48H112.135L108.924 36.4091H108.811L105.6 48H103.782ZM122.092 48.2557C121.401 48.2557 120.773 48.1255 120.21 47.8651C119.646 47.5999 119.199 47.2188 118.868 46.7216C118.536 46.2197 118.37 45.6136 118.37 44.9034C118.37 44.2784 118.493 43.7718 118.74 43.3835C118.986 42.9905 119.315 42.6828 119.727 42.4602C120.139 42.2377 120.593 42.072 121.091 41.9631C121.592 41.8494 122.097 41.7595 122.603 41.6932C123.266 41.608 123.804 41.544 124.216 41.5014C124.632 41.4541 124.935 41.3759 125.125 41.267C125.319 41.1581 125.416 40.9687 125.416 40.6989V40.642C125.416 39.9413 125.224 39.3968 124.841 39.0085C124.462 38.6203 123.886 38.4261 123.115 38.4261C122.315 38.4261 121.687 38.6013 121.233 38.9517C120.778 39.3021 120.458 39.6761 120.274 40.0739L118.683 39.5057C118.967 38.8428 119.346 38.3267 119.819 37.9574C120.297 37.5833 120.818 37.3229 121.382 37.1761C121.95 37.0246 122.509 36.9489 123.058 36.9489C123.408 36.9489 123.811 36.9915 124.265 37.0767C124.725 37.1572 125.167 37.3253 125.593 37.581C126.024 37.8366 126.382 38.2225 126.666 38.7386C126.95 39.2547 127.092 39.946 127.092 40.8125V48H125.416V46.5227H125.331C125.217 46.7595 125.028 47.0128 124.762 47.2827C124.497 47.5526 124.145 47.7822 123.704 47.9716C123.264 48.161 122.726 48.2557 122.092 48.2557ZM122.348 46.75C123.011 46.75 123.569 46.6198 124.024 46.3594C124.483 46.099 124.829 45.7628 125.061 45.3509C125.297 44.9389 125.416 44.5057 125.416 44.0511V42.517C125.345 42.6023 125.189 42.6804 124.947 42.7514C124.71 42.8177 124.436 42.8769 124.123 42.929C123.815 42.9763 123.515 43.0189 123.221 43.0568C122.932 43.09 122.698 43.1184 122.518 43.142C122.083 43.1989 121.675 43.2912 121.297 43.419C120.922 43.5421 120.619 43.7292 120.387 43.9801C120.16 44.2263 120.047 44.5625 120.047 44.9886C120.047 45.571 120.262 46.0114 120.693 46.3097C121.128 46.6032 121.68 46.75 122.348 46.75ZM131.827 33.4545V48H130.151V33.4545H131.827ZM136.574 33.4545V48H134.897V33.4545H136.574ZM144.217 48.2273C143.166 48.2273 142.259 47.9953 141.497 47.5312C140.74 47.0625 140.155 46.4091 139.743 45.571C139.336 44.7282 139.132 43.7481 139.132 42.6307C139.132 41.5133 139.336 40.5284 139.743 39.6761C140.155 38.8191 140.728 38.1515 141.462 37.6733C142.2 37.1903 143.062 36.9489 144.047 36.9489C144.615 36.9489 145.176 37.0436 145.73 37.233C146.284 37.4223 146.788 37.7301 147.243 38.1562C147.697 38.5777 148.06 39.1364 148.33 39.8324C148.599 40.5284 148.734 41.3854 148.734 42.4034V43.1136H140.325V41.6648H147.03C147.03 41.0492 146.907 40.5 146.661 40.017C146.419 39.5341 146.073 39.1529 145.624 38.8736C145.179 38.5942 144.653 38.4545 144.047 38.4545C143.379 38.4545 142.802 38.6203 142.314 38.9517C141.831 39.2784 141.459 39.7045 141.199 40.2301C140.938 40.7557 140.808 41.3191 140.808 41.9205V42.8864C140.808 43.7102 140.95 44.4086 141.234 44.9815C141.523 45.5497 141.923 45.983 142.435 46.2812C142.946 46.5748 143.54 46.7216 144.217 46.7216C144.658 46.7216 145.055 46.66 145.411 46.5369C145.77 46.4091 146.08 46.2197 146.341 45.9688C146.601 45.7131 146.803 45.3958 146.945 45.017L148.564 45.4716C148.393 46.0208 148.107 46.5038 147.705 46.9205C147.302 47.3324 146.805 47.6544 146.213 47.8864C145.621 48.1136 144.956 48.2273 144.217 48.2273ZM156.028 37.0909V38.5114H150.375V37.0909H156.028ZM152.023 34.4773H153.699V44.875C153.699 45.3485 153.768 45.7036 153.905 45.9403C154.047 46.1723 154.227 46.3286 154.445 46.4091C154.667 46.4848 154.902 46.5227 155.148 46.5227C155.332 46.5227 155.484 46.5133 155.602 46.4943C155.721 46.4706 155.815 46.4517 155.886 46.4375L156.227 47.9432C156.114 47.9858 155.955 48.0284 155.751 48.071C155.548 48.1184 155.29 48.142 154.977 48.142C154.504 48.142 154.04 48.0402 153.585 47.8366C153.135 47.633 152.761 47.3229 152.463 46.9062C152.17 46.4896 152.023 45.964 152.023 45.3295V34.4773Z" fill="#727171"/>
<defs>
<radialGradient id="paint0_radial_6082_6989" cx="0" cy="0" r="1" gradientUnits="userSpaceOnUse" gradientTransform="translate(868.513 -97.2794) rotate(140.345) scale(494.329 613.943)">
<stop offset="0.484616" stop-color="#121212" stop-opacity="0.8"/>
<stop offset="1" stop-color="#121212"/>
</radialGradient>
</defs>
</svg>
